<mxfile host="app.diagrams.net" modified="2023-10-15T15:45:38.300Z" agent="Mozilla/5.0 (Macintosh; Intel Mac OS X 10_15_7) AppleWebKit/537.36 (KHTML, like Gecko) Chrome/118.0.0.0 Safari/537.36" etag="EXDa5rzYHb3joDP-V7Bc" version="22.0.4" type="device" pages="2">
  <diagram name="Page-1" id="KfXFgyvBSRjySSkW279D">
    <mxGraphModel dx="954" dy="610" grid="1" gridSize="10" guides="1" tooltips="1" connect="1" arrows="1" fold="1" page="1" pageScale="1" pageWidth="827" pageHeight="1169" math="0" shadow="0">
      <root>
        <mxCell id="0" />
        <mxCell id="1" parent="0" />
        <mxCell id="GescarOal06soTlyGJyf-1" value="" style="shape=table;startSize=0;container=1;collapsible=0;childLayout=tableLayout;" vertex="1" parent="1">
          <mxGeometry x="320" y="220" width="240" height="200" as="geometry" />
        </mxCell>
        <mxCell id="GescarOal06soTlyGJyf-2" value="" style="shape=tableRow;horizontal=0;startSize=0;swimlaneHead=0;swimlaneBody=0;top=0;left=0;bottom=0;right=0;collapsible=0;dropTarget=0;points=[[0,0.5],[1,0.5]];portConstraint=eastwest;" vertex="1" parent="GescarOal06soTlyGJyf-1">
          <mxGeometry width="240" height="40" as="geometry" />
        </mxCell>
        <mxCell id="GescarOal06soTlyGJyf-3" value="A" style="shape=partialRectangle;html=1;whiteSpace=wrap;connectable=0;overflow=hidden;top=1;left=1;bottom=1;right=1;pointerEvents=1;fillColor=#d5e8d4;strokeColor=#000000;" vertex="1" parent="GescarOal06soTlyGJyf-2">
          <mxGeometry width="60" height="40" as="geometry">
            <mxRectangle width="60" height="40" as="alternateBounds" />
          </mxGeometry>
        </mxCell>
        <mxCell id="GescarOal06soTlyGJyf-4" value="B" style="shape=partialRectangle;html=1;whiteSpace=wrap;connectable=0;overflow=hidden;top=1;left=1;bottom=1;right=1;pointerEvents=1;fillColor=#d5e8d4;strokeColor=#000000;" vertex="1" parent="GescarOal06soTlyGJyf-2">
          <mxGeometry x="60" width="60" height="40" as="geometry">
            <mxRectangle width="60" height="40" as="alternateBounds" />
          </mxGeometry>
        </mxCell>
        <mxCell id="GescarOal06soTlyGJyf-5" value="A -&amp;gt; B" style="shape=partialRectangle;html=1;whiteSpace=wrap;connectable=0;overflow=hidden;top=1;left=1;bottom=1;right=1;pointerEvents=1;perimeterSpacing=0;strokeWidth=1;fillStyle=auto;labelBackgroundColor=none;labelBorderColor=none;fillColor=#d5e8d4;strokeColor=#000000;" vertex="1" parent="GescarOal06soTlyGJyf-2">
          <mxGeometry x="120" width="60" height="40" as="geometry">
            <mxRectangle width="60" height="40" as="alternateBounds" />
          </mxGeometry>
        </mxCell>
        <mxCell id="GescarOal06soTlyGJyf-42" value="Implies" style="shape=partialRectangle;html=1;whiteSpace=wrap;connectable=0;overflow=hidden;top=1;left=1;bottom=1;right=1;pointerEvents=1;perimeterSpacing=0;strokeWidth=1;fillStyle=auto;labelBackgroundColor=none;labelBorderColor=none;fillColor=#d5e8d4;strokeColor=#000000;" vertex="1" parent="GescarOal06soTlyGJyf-2">
          <mxGeometry x="180" width="60" height="40" as="geometry">
            <mxRectangle width="60" height="40" as="alternateBounds" />
          </mxGeometry>
        </mxCell>
        <mxCell id="GescarOal06soTlyGJyf-6" value="" style="shape=tableRow;horizontal=0;startSize=0;swimlaneHead=0;swimlaneBody=0;strokeColor=inherit;top=0;left=0;bottom=0;right=0;collapsible=0;dropTarget=0;fillColor=none;points=[[0,0.5],[1,0.5]];portConstraint=eastwest;" vertex="1" parent="GescarOal06soTlyGJyf-1">
          <mxGeometry y="40" width="240" height="40" as="geometry" />
        </mxCell>
        <mxCell id="GescarOal06soTlyGJyf-7" value="0" style="shape=partialRectangle;html=1;whiteSpace=wrap;connectable=0;strokeColor=inherit;overflow=hidden;fillColor=none;top=0;left=0;bottom=0;right=0;pointerEvents=1;" vertex="1" parent="GescarOal06soTlyGJyf-6">
          <mxGeometry width="60" height="40" as="geometry">
            <mxRectangle width="60" height="40" as="alternateBounds" />
          </mxGeometry>
        </mxCell>
        <mxCell id="GescarOal06soTlyGJyf-8" value="0" style="shape=partialRectangle;html=1;whiteSpace=wrap;connectable=0;strokeColor=inherit;overflow=hidden;fillColor=none;top=0;left=0;bottom=0;right=0;pointerEvents=1;" vertex="1" parent="GescarOal06soTlyGJyf-6">
          <mxGeometry x="60" width="60" height="40" as="geometry">
            <mxRectangle width="60" height="40" as="alternateBounds" />
          </mxGeometry>
        </mxCell>
        <mxCell id="GescarOal06soTlyGJyf-9" value="1" style="shape=partialRectangle;html=1;whiteSpace=wrap;connectable=0;strokeColor=inherit;overflow=hidden;fillColor=none;top=0;left=0;bottom=0;right=0;pointerEvents=1;" vertex="1" parent="GescarOal06soTlyGJyf-6">
          <mxGeometry x="120" width="60" height="40" as="geometry">
            <mxRectangle width="60" height="40" as="alternateBounds" />
          </mxGeometry>
        </mxCell>
        <mxCell id="GescarOal06soTlyGJyf-43" value="True" style="shape=partialRectangle;html=1;whiteSpace=wrap;connectable=0;strokeColor=inherit;overflow=hidden;fillColor=none;top=0;left=0;bottom=0;right=0;pointerEvents=1;" vertex="1" parent="GescarOal06soTlyGJyf-6">
          <mxGeometry x="180" width="60" height="40" as="geometry">
            <mxRectangle width="60" height="40" as="alternateBounds" />
          </mxGeometry>
        </mxCell>
        <mxCell id="GescarOal06soTlyGJyf-10" value="" style="shape=tableRow;horizontal=0;startSize=0;swimlaneHead=0;swimlaneBody=0;strokeColor=inherit;top=0;left=0;bottom=0;right=0;collapsible=0;dropTarget=0;fillColor=none;points=[[0,0.5],[1,0.5]];portConstraint=eastwest;" vertex="1" parent="GescarOal06soTlyGJyf-1">
          <mxGeometry y="80" width="240" height="40" as="geometry" />
        </mxCell>
        <mxCell id="GescarOal06soTlyGJyf-11" value="0" style="shape=partialRectangle;html=1;whiteSpace=wrap;connectable=0;strokeColor=inherit;overflow=hidden;fillColor=none;top=0;left=0;bottom=0;right=0;pointerEvents=1;" vertex="1" parent="GescarOal06soTlyGJyf-10">
          <mxGeometry width="60" height="40" as="geometry">
            <mxRectangle width="60" height="40" as="alternateBounds" />
          </mxGeometry>
        </mxCell>
        <mxCell id="GescarOal06soTlyGJyf-12" value="1" style="shape=partialRectangle;html=1;whiteSpace=wrap;connectable=0;strokeColor=inherit;overflow=hidden;fillColor=none;top=0;left=0;bottom=0;right=0;pointerEvents=1;" vertex="1" parent="GescarOal06soTlyGJyf-10">
          <mxGeometry x="60" width="60" height="40" as="geometry">
            <mxRectangle width="60" height="40" as="alternateBounds" />
          </mxGeometry>
        </mxCell>
        <mxCell id="GescarOal06soTlyGJyf-13" value="1" style="shape=partialRectangle;html=1;whiteSpace=wrap;connectable=0;strokeColor=inherit;overflow=hidden;fillColor=none;top=0;left=0;bottom=0;right=0;pointerEvents=1;" vertex="1" parent="GescarOal06soTlyGJyf-10">
          <mxGeometry x="120" width="60" height="40" as="geometry">
            <mxRectangle width="60" height="40" as="alternateBounds" />
          </mxGeometry>
        </mxCell>
        <mxCell id="GescarOal06soTlyGJyf-44" value="True" style="shape=partialRectangle;html=1;whiteSpace=wrap;connectable=0;strokeColor=inherit;overflow=hidden;fillColor=none;top=0;left=0;bottom=0;right=0;pointerEvents=1;" vertex="1" parent="GescarOal06soTlyGJyf-10">
          <mxGeometry x="180" width="60" height="40" as="geometry">
            <mxRectangle width="60" height="40" as="alternateBounds" />
          </mxGeometry>
        </mxCell>
        <mxCell id="GescarOal06soTlyGJyf-14" value="" style="shape=tableRow;horizontal=0;startSize=0;swimlaneHead=0;swimlaneBody=0;strokeColor=inherit;top=0;left=0;bottom=0;right=0;collapsible=0;dropTarget=0;fillColor=none;points=[[0,0.5],[1,0.5]];portConstraint=eastwest;" vertex="1" parent="GescarOal06soTlyGJyf-1">
          <mxGeometry y="120" width="240" height="40" as="geometry" />
        </mxCell>
        <mxCell id="GescarOal06soTlyGJyf-15" value="1" style="shape=partialRectangle;html=1;whiteSpace=wrap;connectable=0;strokeColor=inherit;overflow=hidden;fillColor=none;top=0;left=0;bottom=0;right=0;pointerEvents=1;" vertex="1" parent="GescarOal06soTlyGJyf-14">
          <mxGeometry width="60" height="40" as="geometry">
            <mxRectangle width="60" height="40" as="alternateBounds" />
          </mxGeometry>
        </mxCell>
        <mxCell id="GescarOal06soTlyGJyf-16" value="0" style="shape=partialRectangle;html=1;whiteSpace=wrap;connectable=0;strokeColor=inherit;overflow=hidden;fillColor=none;top=0;left=0;bottom=0;right=0;pointerEvents=1;" vertex="1" parent="GescarOal06soTlyGJyf-14">
          <mxGeometry x="60" width="60" height="40" as="geometry">
            <mxRectangle width="60" height="40" as="alternateBounds" />
          </mxGeometry>
        </mxCell>
        <mxCell id="GescarOal06soTlyGJyf-17" value="0" style="shape=partialRectangle;html=1;whiteSpace=wrap;connectable=0;strokeColor=inherit;overflow=hidden;fillColor=none;top=0;left=0;bottom=0;right=0;pointerEvents=1;" vertex="1" parent="GescarOal06soTlyGJyf-14">
          <mxGeometry x="120" width="60" height="40" as="geometry">
            <mxRectangle width="60" height="40" as="alternateBounds" />
          </mxGeometry>
        </mxCell>
        <mxCell id="GescarOal06soTlyGJyf-45" value="False" style="shape=partialRectangle;html=1;whiteSpace=wrap;connectable=0;strokeColor=inherit;overflow=hidden;fillColor=none;top=0;left=0;bottom=0;right=0;pointerEvents=1;" vertex="1" parent="GescarOal06soTlyGJyf-14">
          <mxGeometry x="180" width="60" height="40" as="geometry">
            <mxRectangle width="60" height="40" as="alternateBounds" />
          </mxGeometry>
        </mxCell>
        <mxCell id="GescarOal06soTlyGJyf-18" value="" style="shape=tableRow;horizontal=0;startSize=0;swimlaneHead=0;swimlaneBody=0;strokeColor=inherit;top=0;left=0;bottom=0;right=0;collapsible=0;dropTarget=0;fillColor=none;points=[[0,0.5],[1,0.5]];portConstraint=eastwest;" vertex="1" parent="GescarOal06soTlyGJyf-1">
          <mxGeometry y="160" width="240" height="40" as="geometry" />
        </mxCell>
        <mxCell id="GescarOal06soTlyGJyf-19" value="1" style="shape=partialRectangle;html=1;whiteSpace=wrap;connectable=0;strokeColor=inherit;overflow=hidden;fillColor=none;top=0;left=0;bottom=0;right=0;pointerEvents=1;" vertex="1" parent="GescarOal06soTlyGJyf-18">
          <mxGeometry width="60" height="40" as="geometry">
            <mxRectangle width="60" height="40" as="alternateBounds" />
          </mxGeometry>
        </mxCell>
        <mxCell id="GescarOal06soTlyGJyf-20" value="1" style="shape=partialRectangle;html=1;whiteSpace=wrap;connectable=0;strokeColor=inherit;overflow=hidden;fillColor=none;top=0;left=0;bottom=0;right=0;pointerEvents=1;" vertex="1" parent="GescarOal06soTlyGJyf-18">
          <mxGeometry x="60" width="60" height="40" as="geometry">
            <mxRectangle width="60" height="40" as="alternateBounds" />
          </mxGeometry>
        </mxCell>
        <mxCell id="GescarOal06soTlyGJyf-21" value="1" style="shape=partialRectangle;html=1;whiteSpace=wrap;connectable=0;strokeColor=inherit;overflow=hidden;fillColor=none;top=0;left=0;bottom=0;right=0;pointerEvents=1;" vertex="1" parent="GescarOal06soTlyGJyf-18">
          <mxGeometry x="120" width="60" height="40" as="geometry">
            <mxRectangle width="60" height="40" as="alternateBounds" />
          </mxGeometry>
        </mxCell>
        <mxCell id="GescarOal06soTlyGJyf-46" value="True" style="shape=partialRectangle;html=1;whiteSpace=wrap;connectable=0;strokeColor=inherit;overflow=hidden;fillColor=none;top=0;left=0;bottom=0;right=0;pointerEvents=1;" vertex="1" parent="GescarOal06soTlyGJyf-18">
          <mxGeometry x="180" width="60" height="40" as="geometry">
            <mxRectangle width="60" height="40" as="alternateBounds" />
          </mxGeometry>
        </mxCell>
      </root>
    </mxGraphModel>
  </diagram>
  <diagram id="5aFAvti3ikz9yK71VOfq" name="Page-2">
    <mxGraphModel dx="954" dy="610" grid="1" gridSize="10" guides="1" tooltips="1" connect="1" arrows="1" fold="1" page="1" pageScale="1" pageWidth="827" pageHeight="1169" math="0" shadow="0">
      <root>
        <mxCell id="0" />
        <mxCell id="1" parent="0" />
        <mxCell id="sMzbPIUYbmpinaAwsc2s-3" value="" style="shape=image;imageAspect=0;aspect=fixed;verticalLabelPosition=bottom;verticalAlign=top;image=data:image/png,iVBORw0KGgoAAAANSUhEUgAAAx4AAAHACAYAAAAskb5IAAAKrmlDQ1BJQ0MgUHJvZmlsZQAASImVlwdQU1kXgO976SGhJCECUkJv0lsAKSG0AArSQVRCEiCUEAIBxI4sKriiqEizoYsiCq4FkLUgotgWwYJYF2QRUdbFgqhY/gcMYXf/+f9//jNz53zvvHPPPffOPW/OA4CsyBWLU2BFAFJFmZJgHw9GZFQ0AzcEsEAZKABrQOHyMsSsoKAAgMiM/rt86AHQpL5jNhnr39//V1HiCzJ4AEBBCMfxM3ipCJ9CxkueWJIJAGofYtfNzhRPcjvCNAmSIMK9k5wwzSOTHDfFaDDlExrMRpgGAJ7E5UoSACAxEDsji5eAxCG5I2wp4gtFCIsRdk1NTeMjfBxhI8QHsZEm4zPj/hIn4W8x42QxudwEGU/vZUrwnsIMcQp3+f95HP9bUlOkM2sYIIOUKPENRjQFObPe5DR/GYviFgbOsJA/5T/FiVLfsBnmZbCjZ5jP9fSXzU1ZGDDD8UJvjixOJid0hgUZXiEzLEkLlq0VL2GzZpgrmV1XmhwmsycKOLL4uYmhETOcJQxfOMMZySH+sz5smV0iDZblLxD5eMyu6y3be2rGX/Yr5MjmZiaG+sr2zp3NXyBizcbMiJTlxhd4es36hMn8xZkesrXEKUEyf0GKj8yekRUim5uJXMjZuUGyM0zi+gXNMGCDNJCCDAlggADkyROATEFO5uRG2Gni5RJhQmImg4VUmIDBEfHM5zGsLa1tAJis1+nr8I4+VYcQ/fqsLXU3AA5jSI1snLXxkEvZ/BwAVYtZm34rAAp6ADRKeVJJ1rRtqpYwgIh8B2hAFWgCXWAEzJBvgj1wBu7AC/iBQBAKosBSwAOJIBXJPBusBOtAASgCW8FOUAH2ggPgMDgGToAmcBZcBFfADdAF7oFHoA8MgldgFHwAExAE4SAyRIVUIS1IHzKFrCEm5Ap5QQFQMBQFxUIJkAiSQiuh9VARVAJVQPuhWuhn6Ax0EboGdUMPoH5oGHoLfYZRMAmmwRqwAWwBM2EW7A+HwkvgBDgdzoXz4S1wGVwNH4Ub4YvwDfge3Ae/gsdQACWHoqO0UWYoJoqNCkRFo+JREtRqVCGqFFWNqke1oDpQd1B9qBHUJzQWTUUz0GZoZ7QvOgzNQ6ejV6M3oyvQh9GN6Hb0HXQ/ehT9DUPGqGNMMU4YDiYSk4DJxhRgSjE1mNOYy5h7mEHMBywWS8caYh2wvtgobBJ2BXYzdje2AduK7cYOYMdwOJwqzhTnggvEcXGZuAJcOe4o7gLuNm4Q9xEvh9fCW+O98dF4ET4PX4o/gj+Pv40fwk8QFAn6BCdCIIFPWE4oJhwktBBuEQYJE0QloiHRhRhKTCKuI5YR64mXiY+J7+Tk5HTkHOUWyQnl1sqVyR2XuyrXL/eJRCGZkNikGJKUtIV0iNRKekB6RyaTDcju5GhyJnkLuZZ8ifyU/FGeKm8uz5Hny6+Rr5RvlL8t/1qBoKCvwFJYqpCrUKpwUuGWwogiQdFAka3IVVytWKl4RvG+4pgSVclKKVApVWmz0hGla0ovKDiKAcWLwqfkUw5QLlEGqCiqLpVN5VHXUw9SL1MHaViaIY1DS6IV0Y7ROmmjyhRlW+Vw5RzlSuVzyn10FN2AzqGn0IvpJ+g99M9zNOaw5gjmbJpTP+f2nHGVuSruKgKVQpUGlXsqn1UZql6qyarbVJtUn6ih1UzUFqllq+1Ru6w2Mpc213kub27h3BNzH6rD6ibqweor1A+o31Qf09DU8NEQa5RrXNIY0aRrumsmae7QPK85rEXVctUSau3QuqD1kqHMYDFSGGWMdsaotrq2r7ZUe792p/aEjqFOmE6eToPOE12iLlM3XneHbpvuqJ6W3gK9lXp1eg/1CfpM/UT9Xfod+uMGhgYRBhsMmgxeGKoYcgxzDesMHxuRjdyM0o2qje4aY42ZxsnGu427TGATO5NEk0qTW6awqb2p0HS3afc8zDzHeaJ51fPum5HMWGZZZnVm/eZ08wDzPPMm89cWehbRFtssOiy+WdpZplgetHxkRbHys8qzarF6a21izbOutL5rQ7bxtllj02zzxtbUVmC7x7bXjmq3wG6DXZvdV3sHe4l9vf2wg55DrEOVw30mjRnE3My86ohx9HBc43jW8ZOTvVOm0wmnP53NnJOdjzi/mG84XzD/4PwBFx0Xrst+lz5Xhmus6z7XPjdtN65btdszd113vnuN+xDLmJXEOsp67WHpIfE47THOdmKvYrd6ojx9PAs9O70oXmFeFV5PvXW8E7zrvEd97HxW+LT6Ynz9fbf53udocHicWs6on4PfKr92f5J/iH+F/7MAkwBJQMsCeIHfgu0LHi/UXyha2BQIAjmB2wOfBBkGpQf9sgi7KGhR5aLnwVbBK4M7Qqghy0KOhHwI9QgtDn0UZhQmDWsLVwiPCa8NH4/wjCiJ6Iu0iFwVeSNKLUoY1RyNiw6ProkeW+y1eOfiwRi7mIKYniWGS3KWXFuqtjRl6bllCsu4y07GYmIjYo/EfuEGcqu5Y3GcuKq4UR6bt4v3iu/O38EfFrgISgRD8S7xJfEvElwSticMJ7olliaOCNnCCuGbJN+kvUnjyYHJh5K/p0SkNKTiU2NTz4goomRRe5pmWk5at9hUXCDuS3dK35k+KvGX1GRAGUsymjNpSGN0U2ok/UHan+WaVZn1MTs8+2SOUo4o5+Zyk+Wblg/leuf+tAK9greibaX2ynUr+1exVu1fDa2OW922RndN/prBtT5rD68jrkte92ueZV5J3vv1Eetb8jXy1+YP/ODzQ12BfIGk4P4G5w17N6I3Cjd2brLZVL7pWyG/8HqRZVFp0ZfNvM3Xf7T6sezH71vit3QW2xfv2YrdKtras81t2+ESpZLckoHtC7Y37mDsKNzxfueynddKbUv37iLuku7qKwsoay7XK99a/qUiseJepUdlQ5V61aaq8d383bf3uO+p36uxt2jv533Cfb37ffY3VhtUlx7AHsg68Pxg+MGOn5g/1dao1RTVfD0kOtR3OPhwe61Dbe0R9SPFdXCdtG74aMzRrmOex5rrzer3N9Abio6D49LjL3+O/bnnhP+JtpPMk/Wn9E9VnaaeLmyEGpc3jjYlNvU1RzV3n/E709bi3HL6F/NfDp3VPlt5Tvlc8Xni+fzz3y/kXhhrFbeOXEy4ONC2rO3RpchLd9sXtXde9r989Yr3lUsdrI4LV12unr3mdO3Mdeb1phv2Nxpv2t08/avdr6c77Tsbbzncau5y7Grpnt99/rbb7Yt3PO9cucu5e+PewnvdPWE9vfdj7vf18ntfPEh58OZh1sOJR2sfYx4XPlF8UvpU/Wn1b8a/NfTZ953r9+y/+Szk2aMB3sCr3zN+/zKY/5z8vHRIa6j2hfWLs8Pew10vF78cfCV+NTFS8IfSH1WvjV6f+tP9z5ujkaODbyRvvr/d/E713aH3tu/bxoLGnn5I/TAxXvhR9ePhT8xPHZ8jPg9NZH/BfSn7avy15Zv/t8ffU79/F3Ml3KlWAIUMOD4egLeHACBHAUDtAoC4eLqfnhJo+h9gisB/4umee0rsATiA9ByhawEIQHQ5og3dkR4EeTXZEoW6A9jGRjZmet+pPn1SsMgfyz72JPXUrC8G/5DpHv4vef9Tg8motuCf+l+70QShgPAqwQAAAIplWElmTU0AKgAAAAgABAEaAAUAAAABAAAAPgEbAAUAAAABAAAARgEoAAMAAAABAAIAAIdpAAQAAAABAAAATgAAAAAAAACQAAAAAQAAAJAAAAABAAOShgAHAAAAEgAAAHigAgAEAAAAAQAAAx6gAwAEAAAAAQAAAcAAAAAAQVNDSUkAAABTY3JlZW5zaG90f51yBgAAAAlwSFlzAAAWJQAAFiUBSVIk8AAAAdZpVFh0WE1MOmNvbS5hZG9iZS54bXAAAAAAADx4OnhtcG1ldGEgeG1sbnM6eD0iYWRvYmU6bnM6bWV0YS8iIHg6eG1wdGs9IlhNUCBDb3JlIDYuMC4wIj4KICAgPHJkZjpSREYgeG1sbnM6cmRmPSJodHRwOi8vd3d3LnczLm9yZy8xOTk5LzAyLzIyLXJkZi1zeW50YXgtbnMjIj4KICAgICAgPHJkZjpEZXNjcmlwdGlvbiByZGY6YWJvdXQ9IiIKICAgICAgICAgICAgeG1sbnM6ZXhpZj0iaHR0cDovL25zLmFkb2JlLmNvbS9leGlmLzEuMC8iPgogICAgICAgICA8ZXhpZjpQaXhlbFlEaW1lbnNpb24+NDQ4PC9leGlmOlBpeGVsWURpbWVuc2lvbj4KICAgICAgICAgPGV4aWY6UGl4ZWxYRGltZW5zaW9uPjc5ODwvZXhpZjpQaXhlbFhEaW1lbnNpb24+CiAgICAgICAgIDxleGlmOlVzZXJDb21tZW50PlNjcmVlbnNob3Q8L2V4aWY6VXNlckNvbW1lbnQ+CiAgICAgIDwvcmRmOkRlc2NyaXB0aW9uPgogICA8L3JkZjpSREY+CjwveDp4bXBtZXRhPgqMlE0/AAAAHGlET1QAAAACAAAAAAAAAOAAAAAoAAAA4AAAAOAAAHEE0c/haQAAQABJREFUeAHsnQn8VdP6/5+KLhG5JKWoW4bMhKRIUSjClQzpZ0iUoTSoFELlJ11UVFxDmbpkyI+LSmVMmYcimfoTSRKJyHT+67Pcte46++x9pr3P8N3ns16v7/fsvfbaa3jvdfZZz1rP86xqCRWEgQRIgARIgARIgARIgARIgAQKSKAaBY8C0mXWJEACJEACJEACJEACJEACmgAFD3YEEiABEiABEiABEiABEiCBghOg4FFwxCyABEiABEiABEiABEiABEiAggf7AAmQAAmQAAmQAAmQAAmQQMEJUPAoOGIWQAIkQAIkQAIkQAIkQAIkQMGDfYAESIAESIAESIAESIAESKDgBCh4FBwxC8iWwC+//CK//fabVKtWTTbddNNsb2O6DAR+//132bBhg05Fthlg8TIJpCHgfpfwjsL3iYEESkkAOyL89NNPugp/+ctfpEaNGqWsDssmgYwEKHhkRFQ1Enz66ad2cFm9enVp1qxZYMU//vhjwQ8ofjR32mmnwHTFvnDhhRfKk08+KZtttpksWrSo2MXHqrx169bJxIkTZebMmfLZZ5/Ztm233Xby0ksv2XMexIvA3/72N92g7t27y8iRI+PVuDJozYMPPihDhgzRNXniiSekefPmZVArVqGSCbzxxhvStWtXjWD8+PFy7LHHVjIOtr0KEKDgUQUeUjZVPOCAA+Sbb76xSf/v//5P9txzT3vuHpjBCeLee+892WSTTdzLJTum4BEN+j/++ENOOukkefPNN1MypOCRgiRWEea73a1bN7n22mtj1bZyaMz06dNl6NChuiqPP/647L777uVQLdahSATWrFkjd955py6tQ4cOsvfeexep5OBiXn/9df2+RwoKHsGceKV8CFDwKJ9nEaomXsHjqKOOkkmTJvnmaQYnuEjBwxdRlY589tln5eyzz9Zt2HfffeXUU0/VQihWwmrWrCk77rhjlW4fKx9MwHy3KXgEMwpzhYJHGHpV/94PPvhA8NuKgBVFrCyWOlDwKPUTYPm5EqDgkSuxMk3vFTxQzVmzZvmqUpnBCdJQ8ACFeIVbb71VxowZoxt13333SatWreLVQLYmkABWuaDzvc0228gOO+wQmI4X8iNAwSM/bnG5i4JHXJ4k21FKAhQ8Skk/wrL9BA/ofV533XUppVDwSEESq4grr7xS7r77bt2md999l4b6sXq6bEwpCVDwKCX90pdNwaP0z4A1qPoEKHhU/WeoW+AKHlCvMfr9zz33nDRq1CiplekED8yQ//jjj9KkSROBDqs3fPjhh/LMM8/o6OOPP1623XZbfYzl3gULFsiWW24pO++8s9xzzz3y+eefy6GHHirnnXeefPXVVzJlyhRBOlzv1atXin60a+PxzjvvCIw3X375ZX1P48aNBe36+9//LltvvbW3WknnK1as0Ks9S5Yskffff1/++te/ym677SaHH364tGjRIimt92T58uUC+xiETp06abWkp59+Wv7973/LJ598ogfxMMg/5ZRTZJ999vHeHvocDOfPn69XolavXq2dBMCA9ZhjjpH69ev75o92zp07116DgT7ajdC/f/8kzzt4Pj169LBpozh46KGH9LPOlBeeW7qy3377bXnxxRcF7UE/a9q0qe4jMJbMNHuPOqxcuVLq1q0rJ598snzxxReCvvzWW29p26eGDRtKmzZtBCpIcF7gDflwN3nAUQOYv/DCCwInD999951ecWjQoIG0bNlS2rZtq+tl0kf5iXqbZ+3mu8suu8jBBx/sRiUdo08vXbpU4AUH30V8355//nn9Hf7555+1ah76+K677pp0X9Qn+X5X4TABvPF88axh34Z3BOoLuwu8u7LxOLV+/Xr9ngEL9Ltvv/1Wvy+RB9416Ddu8AoederUkXnz5mmHDXj2uA+qOHjXFDrkWndTH/RX2KfgmWNiAp4E8X7EH97pQR4Fw/YZvP/x24LvNRjhd2ThwoXyyiuvyBZbbCF77bWXnHPOOQKm6UKY9wTyxYrgnDlztAMTPPf/9//+n363wiEL3rPe9/ott9yiGeFe/I7hvYJw2GGHyX777aePzT+osaYz7g5T98WLF8vs2bP17yE8QOLdgn6O5webPoRC2HjgfYb3Mn6L8V3DH1ZU8buE7xt+J2vVqmUQ+H6GfT/n+56Iou5oEOx6wNyEzp07p4yrzDV+ZiZAwSMzoyqRwhU87rjjDunZs6eu9//8z/8IZsDdkE7wgEE6fhyOPPJImTx5snubPsYLZPDgwfr44Ycf1sIATuBB6frrr9fx3n94QWNwhIGhCRj84YcHLzATXMEDg0djxGeu4xPG0XfddZevChmu4wd12LBhug0494a+ffvKRRddFOhyEIOZM844Q9+GHxz8KPrVAwnww7355pt7i8jr/Ndff9WrU3h2fgG8JkyYIO3atUu57A6GUi56IgphXA49ZwyAMwUIs66AZNKj7TfddJPcfPPNJirpE20fO3as1a1OuvifEwyY8DwgFN52222CHwb0Y2/o3bu37b+4FoY77oexKWxoICgFBfT/oD4UdE+28ejr999/f0ryTDYeAwYMkEcffVTfB14QPvwCJhBat27tdyl0XL7fVdQb9U8XMLCFumHt2rUDk7322msyaNCgJK9v3sR4bnh+JrjfNfTXESNGJDn1MOmQ7/nnn29OI//Mp+6oBCYzwA4DSb+AgSTa5f5GmHRh+4z724J3Ad6v3oD30yOPPKLf895rUbwnMGi+9NJLA9uPMvHc8PxM8GNhrnk/MdE2depUb7R+z4R5x82YMUMGDhyYki8i+vTpY3+roxY8IOC7/d+vAnjnYqyQjlO+72eUl+97Iqq6ow7etmEMcsghh+ASQx4EKHjkAa0cb3EFD7hLvfzyy+0gD7NKZmUCdXe/RF4bD/fHIV/BAwNFzPp4B0R4KcPNq1mNueGGG/QMm+FpBA9zjnzwwsIsNlZuzH2Ih0DgnZnDTBTabUKXLl30jAx+bLGKYbx+XXLJJfplbdK5n67gAeELdjII+EHGSg1mULBqg0FtlIIHVOLMDzHah7rXq1dPMENmVphQj8cee0z22GMPHNoALlgdMgHply1bpk+Nkbm5hhUPCF5RBryEP/roI98ssYKEmXQE/EAZnm5i1MfUH20/8cQTBasFcPsM96Um4Dhoxcr8sGHgAmEWs4PIC+kxgwoVCQi/XsEjDHfUy+2z6COYMQVjzIyiDjD0DxqMmHaF+cQgDd8FEzAwRshF8EB6sIKwhtVB1NmsoqBNeDbZrB4gn2xDmO+q69IWgjhm0PHc8d1EXU3fxwy6Ea689cI78vTTT7fRSHvggQfq9qPfgQHeFxiEY0bXBFfwMHG4jjrABTjuM8H73jXxYT/zrTtm+o877jjdL1EHrCJ27NhRNt54Y716hP6KgJVJfGe971dX8EC6XPuM+W3BvQgo/4gjjtDHDzzwgJ0owDvrsssu0/Huv7DvCUwSYPXRTEigz2BlChoBWJ3HjD4mENAvrr76als0BFgIPQhff/21HgjjGO8Wr1cr/LaedtppuJwUwtQdkzquETt+G/Auxe8PVqHcELXggVV+84ygcYAVPTw37BuC/u1OOL366quB2gj5vp/DvCeiqjv4umMmnFPwAIUQQb2MGGJAYP/990+oWST99+WXXyaUb297rl6cSS006fCpXiBJ19SgVt+nBmhJ8eZE/ejbfFGGCeoH2sarH2AdrWYqbFy/fv10nFrmTyhjZx2vflzM7frzggsusOlRD6X6YK+r5eSE+uGz1++99157DQfqRyVh6o5PNWBPuq6Ej0T79u3t/WrpNum6OVE/uDYN+KCuStAwl/WnGuAkxo0bl1AqKUnx+Z6oHzNbJuquBn1JWalZV3v93HPPTbrmdwKu5hmDd6kC+pYa6Ni6qEFhSlXUD5e9jrRqwJ6UBn3JtOXoo49OoB/4BbccpL/qqqtS+rYasCWUSpS9PSx3NYCxdcNzU0K1zdscKPWbxFNPPWVOC/5pWKm9JtKWpVTwbN3x7lDqJjY9+rWyD7PX1YDUXoviIOx3Vc3WJ9SkSALfaW9A/8B3xHBQKwPeJAk1iEx6F6gVn4T3e/L9998n1GpGQg3sku5XA2SbN8pQQn7S9f/93/+119XMd9K1KE7C1F2phNm6KTWyBN5jJig1koQSou11vHO8IWyfMe9ncFOrygl8f0zAb5Z5Zvj0Po8o3hPuexG/Rz/88IMpXn+i7yjbuIRauU+Kd0+Uapatp/c3yE3nHoetuxJkbJned6haIbfXwE1NTLlFhz7G+1h570qoiRvfvP75z3/a8pUXTd80iMzn/Rz2PRFV3VF/t2/iGOMEhvwJQN+RIQYEvIIHmqRUQOwXxv2Rcb9EhRA8zOAQLytTlpohsJTNwACChhtcwUOthriX9PGqVatsfmrmKuk6hCtTlvflbBK6QpNaXTDRSZ9ewcMIUUmJIj7BIMrUHcd+Qc1M2jQYzKYL7g+s9wc83X1RX1MqebbOXuHXlOX+IKmlcROd9OkKnK6w6yZy81F64u6lwOOw3JXahm1fkKAeWHiBLph+lIvgoWYVU2rjThqoVaqU62EiovquBtVBrQDa5wKhwhvc94CZEPGmCTp3BQ8M1L3BHUBjwBZ1CFN3DPZN//BOpqCeGKiZ6/g98QZX8Minz7iCh99A1n1vqdWmpOLd73c+7wm1CmbbhsmkDRs2JOWf7Uk+gkeYuru/ofg99wa1Z1MCv4XmuUUteHjL857jt96UrVaqvJftucsg2/dzod8T2dYdjTBtNJ8UPOyjzeuAgkde2MrvJj/BAzOD5ouCFQkTTBw+CyF4mHLcgZmyBzHRduVCGRrbOBy4god31t8kdH88MUtngitkYYYJP6zmD7Oe+FNqEJaH36ABebmCR7oXqSk3ik+l+mXrpZb8fbO8/fbbbZpMLz33B7xUgoeyDbD1xTMzwqjbOPz4m75oVpa8zwzPzRUQ/AY8yNP9YfOudrllusdhuaP/mfrjM9ty3TpEfWzqk4vg4bf65640ZTuzm21bovquojz0Kwz2IWwo1Q/9hxUmw0Gp0qVUCysZ5rq7qpqS0CfCFTyCBnkmb+/Eik92OUeFqbv5jcB3LSjgnWfq765IIL0reOTTZ4zggYGyX3Bn7933fxTvCax0mnZhVSPfkKvgEbbuypjc1vtf//qXb7WV7YhNE9QnfW/MMRK/JVhlxAqo+a7h0/QrvIODQj7v5yjfE2HqjjbNnDlTryaBL/6wWs6QPwHaeIRQUyunW702HtBfRTC6ldDHhQ4rvE+4+opR23hAPxi6ngjQqVUvJX3s6kobg1jojMJA3QRXXz7IfgI2HND7RFADcOt1xqs/bPIM+gyyN3BtPNQPbeT2EH71gSG9YQYd4xo1aqQkgzcT2CcgXHPNNdqrVkqi/0S4jGB7gY0DixmUsKBtDFAm9IGhZ+/nqcbVwc22fkH636afIx94qoHeeqYQBXc1Y251vlGeGtxoo0N4xoHNAGxVihnMdzsXGw+/PgcPTcaRAYxxg4zP82lbFN9VeGOCTRRsOtIFtbpqdxo36eBwwxhXqxll2WijjcyljJ+ujQfsEvDe9QbzLoZRbtROBfKtOzzywF4HIZ3N0ahRo2yd8c6BpycTXBuPfPqMee5K8LHvcJM3Pl3HJbBdMt6lonhPqMkL7aAC5QQ9N1zLFNBfctlAMGzd4RbdOIcJsiuA/SJ+qxCitvFAnmolTNs0GBtExPkF9C949/ML+byfTX/xy88vzu83PYq6+5XFuHAEKHiE41c2d5sfO1QIxodG8IDxGdzZImBAetZZZxVN8ICxp3E3iBc/jLVNPSA8eI0/XcEDL2y/4BoDG69aMBbES8oEDP4yBbg99BsUuIIHvHSdcMIJmbIKfR1uT+HxyxXavJmqlQDrMhGDXfwFhVIKHmgHXDzimSDgh8gMeLz1hcMA9EcECMauAwRvWnOOHzA/43jzw5aOocnDfEbBHe5X8WNv9k0xeZtPDPKuvfZa+3008YX6zEfw8PuuuYLH0KFDBQP4KEIU31U1+5jiMcrtP2p203qq8hNUs3nuQW11BQ9424GxrTeYd3EhBI986w5vTsYLD5w3wEucX3AH6GqlK8klsyt45NNnzEAyV4+JUbwn0IeN4wU4AMCESD4hV8EjbN39fu+89XZ/s6IWPPCc1WqFfZ+bst3fWOPMwW/gb9Ln+n6O4j0RVd1NG/gZIYH8F0t4ZzkRMMudWE6G6oEJUEUwRtVIA8NRpDF/uapaqZe3vdfVtzfG5SjDBDUos2mxVGmCUQXyLs26qlYwovQLahBn84T+K4KrqwkD5DDBVbWKWrc9qF6oM54HVBGCgqs2p3YmD0qm4w1f5FlMVSv0LXdJPcjWxlQealWmH8IoN0ww5cIWJtsQJXeoFULlQQlStk2mbahTUH/Otq7ZpjNl5qJq5Zc3jM1NXpn6m9/9QXFhv6tqQGLrhfrBdmzt2rVJxSnh16bxs7PI5rknZeicuKpWQUb35l2MvhB1yLfuMNQ1zzOdChhs60w69/2OdriqVn7tytRnjKpVkD2Ua7/ilh3Fe0Kt5Nh25ape57Y1V1WrsHVXbuptvZGXX3DVsaJWtYI6tOkP+F3xs68x44t0795c389h3xPgFFXd/ZgzLhwB2niE41c2d5sfO7wkXMEDFVSqLvbl4f5wIq1X8DD5QNfXLxgBA/e6Pw4mPirBA4aOfsE1NHYHHMb42i3f7/5McaUQPIyxPZiqTcF8q6j8uNtnmGlAXyrBA4NdtAF/QcbkbuOgL2zS47mGCbn+sKGsqLmb+mOQBxsXM9BCGzPZ5Zh7w34anuUqeKB9Yb6r8DJl2hjkIALvJZPGT/CAfZe5jsmRXIL7/iyF4BGm7qbN8GgVFNzvMAQ4N5RK8IjiPQHbMNN+tXmg26ycjnMVPMLW3X3vB02ETZs2zbYtSsHDFVYhRMOQ3RtcASFKwQPlhHlPRFl3b5t5Hp4ABY/wDMsiByMw4OXqFTww2wqDQlxzPWDg3Ct4mBk1fPoFeIExL/BCCh5+LkjxkjPtQB3c4K6WKLsG91JOx6UQPDA4MkyDBqiuhyiXu1/jSiF4wADZtCHImNyvrmZwjuear6cZ5JuP4BE1d2/7sFJgmEAQKUYw5ZWz4BHmu+r2M6wC+gV3lthP8IArbMMpyGDXL1/ElVrwCFN3M5BD210vh6at3vcrzt1QKsEDdQj7npg/f7595vgNyze4qzpwepFNCFN31xXv6NGjfYtzf5OjFDxg4G++JzfeeKNv2WoPIZsmasEjzHsiyrqj4Rg34TmaP2Uv68uDkdkRoOCRHaeyT5VO8EDl3VkR8zLBp1fwgKs7c90rwMCTibmGT3cAHPWKB3yXe9WE4DPflA+PRG5wZ0LVTq6+szMmvdogLMmHvInHZykED9e/Pvh7Z5ZcN8J48UHdJF0otuABz1PmuUCAyGUW2VWBcF0ue9sHJulcG+cjeITlDoEeM2tBwXVJCxXFYgTzHMpZ8AjzXYXKpmmjn1ABbzNmoId0fmncWWu8N4OeId5/agPMpMdWasEjTN1dNVV4yfOGuXPnWrZ+Lk9LKXiEfU9gJdmdtHJ/u1wOSJfuPYPrpv+lU1lz8wxTd5Rn+jM+vXuPuGqFqFeUgoe7WuMnVEAwVU4sLA+/NIZDPu/nMO+JKOuONphnbj6DJghNe/mZngAFj/R8qszVTIIHBAw3jfkCeQUPqC+Ya3BnpwzHtPqP8rqUslrivryjFjxQBwye8OOPmXC4wjUvYFxz3S2ah+Tq10O/U3nG0nXHCxK6qVhFMXqfQT8upRA8MKhWO71b7sqLUAJCHuoNF61Ghxbt9hswmPabz2IKHrDrcPsV9LShQ+33h77kDVCXc58rNv7DrCLajryV9xyttmQYeO835/n8sIXlbmbVoCaGzQnNABb2HlCRcLl4B7Cm3mE+sWEhBh7un/nuQiXHjccxmJoQdhBp8sn3M9/vqjvjjH6D/oY9H/AewzNwB5dg4Sd4oM6IN6zwnCCEYhUAjLBPjnEH7VVrLLXgEabu7gQG2o42os2YyHAFOlzzcw0dts+Y73muNh5ocxTvCdcWwrQfvy94D0C1FwNdzGwr5xwoMjAgjek7yphbT8BhMgvvN3zPvCFs3c1vK8rExp4oC/0Uqn7mvWjqE6XggXa47zCstpmyYV/pbmyI8qMWPFB+vu+JKOuOvAxf80nBA1TyD/RqFaGhfimzMp5UUAfXq5VbJ+UnXdRyrRslXne68NLTokWLpDTuCVxsqpUHHWW8SuFEqTcIvEC5XoXCeLVCPmpA4RZtj3v27CnDhw+35+ZADe60By81IDRRgZ/qBS3qhzDluushBO4D1cs0JU0hIpThoJx55pkp3kPcsuAFTK1caZfIbrz3uJherdQOz9btpbce3nP10hY1q+qNFqUGoV0Fw5NJpuDnTQf3GK8p6Tyr+OUdhruafRalkuiXbVIc3CArVbmkuChO3OecTX5KrUhatmypk4b1UJRNeenShPmuXn311aJ2BQ/MvkuXLoLvN4KfVyvEo9/Ci55xq4s4v6AGfdKpUyd7qdRerVCRfOuOe133rDj3C3DZa1y4utfD9pl8vVqZOkTxnoCHObXbtsnS9/P0008X9LGgoCawRK12+F4OclUcpu5KcBE1CSjZ/K5F7dVK2ZWI0iDwbSsi8ZuE33k1sSfp3r35vp/DvCeiqjvaabwF4hghyLXxn1f5PyOB/GUW3llOBNyZviDDbMyQmlknI7n76dVjJcOd6UBanGMW1zV2c2fFoO+KdKiHCZhNM+VgtskEswmW18jRGE6ijphRcWeWTD7KBa7JxvcTm7phFsrbTnM/VhZQV/Xj7Xu/6z0qjBGib+YZIrEqgxktU1f3E16f0LZsAmbszL2YzStkQJ8yZWX6TDcjhqXxvn37BuaFma906kqGW5BtUjoG+XJHnbHaEdTX8F1Anb0qg+nqkss19zlnYo/rWLU0YdCgQZo16u4XwMTkmc0qm18emeLy/a5idcP1vmTqibZAncj1fBWkF4+64blABTXo+WHF1btRnut5Kcg7knkXBznoyMQlm+v51N3k67cyBIbggPd7UAjbZ8xvSpCKUtBvi1ufsO8J5AX9fLyLTL9xP2GfFuQ9yq0HVhvQP7x9B++poBCm7lCxggqxW1ccY/UIz9PEe1foguqSSzyei7edKA/9G6s52bx7s0kTVKd83xPIL4q6Ix9v+4Psy5CWITMBrnhkFM0qM4HSXxe1rCqYcdh5551lR7XvRSkC/M+rH3i9USBmVPw21/Orl+r6euMjzJArPVmpV6+e3swNKynlHtSPjGCDLqz4NG7cWG9Kl227y71tmeqnBlS6zym1Bb3xIfajadiwod7nI9O9Ya/ny10Jd7rOSpVFb5q5xRZb6L6GelfKcwvDPt/vKmaC8f1WAzpp2rSp/q7ku1kmvmvIC7O39evX13ltvvnmYZpVtHvzrbuyh9HvGTWw0+94tLtatWpFq3eYgqJ4T2CFFe8Z/MbUrVtXGjVqpD/D1Cube8PUHXXG5pn4fcZqQ+3atbMpMnQapfYqSs1Rv+fQTzAmqFmzZuh8c8kg3/dEOdQ9l3ZWQloKHpXwlNlGEiABEiABEiABEiABEigxAQoeJX4ALJ4ESIAESIAESIAESIAEKoEABY9KeMpsIwmQAAmQAAmQAAmQAAmUmAAFjxI/ABZPAiRAAiRAAiRAAiRAApVAgIJHJTxltpEESIAESIAESIAESIAESkyAgkeJHwCLJwESIAESIAESIAESIIFKIEDBoxKeMttIAiRAAiRAAiRAAiRAAiUmQMGjxA+AxZMACZAACZAACZAACZBAJRCg4FEJT5ltJAESIAESIAESIAESIIESE6DgUeIHwOJJgARIgARIgARIgARIoBIIUPCohKfMNpIACZAACZAACZAACZBAiQlQ8CjxA2DxJEACJEACJEACJEACJFAJBCh4VMJTZhtJgARIgARIgARIgARIoMQEKHiU+AEUuvi3335bfv/9d11M3bp1pVGjRoUuMjb5f/HFF/Ljjz/q9jRs2FBq1apVtm376aefZMmSJfLhhx/KqlWrZN26dVK/fn3ZcccdpUWLFrLllluWbd1ZMRIgARIgARIggcogQMEjxs/5q6++klatWtkW4vi+++6z5zzwJ/Dmm2/KLbfcIk8//bRNMHnyZDnyyCPteTkdoK7XXXddYJU222wz6d+/v5xxxhlSo0aNwHS8QAIkQAIkQAIkQAKFJEDBo5B0S5z3gw8+KEOGDEmqxRtvvCF16tRJiuPJnwTmz58vEydOlIULF6YgKWfBY9SoUXLnnXcm1RnChlmtMRf69esn+GMgARIgARIgARIggVIQoOBRCupFKrNXr14yd+7cpNLGjx8vxx57bFIcT0QgkHXt2jUJhTt4L2fB44477pCPP/5Y2rdvr9WqIFgmEgl599135ZlnnpFx48bZdj3++OOy++6723MekAAJkAAJkAAJkECxCFDwKBbpIpezfv162WOPPXSpJ5xwgsyYMUMfd+nSJWkgWuRqlW1xr7/+upx00km6fvg877zzZN68eXLNNdfouHIWPDJBnTBhgn3mV111lfTo0SPTLbxOAiRAAiRAAiRAApEToOAROdLyyHDOnDly7rnn6spMmjRJCx7GZuH999+XmjVrpq3oQw89JCtXrhQYpJ988skCQ2vYh7z11lvyzTffCIyt27RpI926dROsDHgDjNpffPFFa/DctGlTPdOO1ZYddtjBm9yef/bZZ/LCCy/oclAmymrcuLHsuuuu+v4OHTpItWrVbPqoDj744AOZNm2anHPOObptyPf222/PS/CYPXu2fPLJJ7Zq++23nxx44IH2vNgHL7/8spx66qm62O7du8vIkSMjrQL6yueff54xz6233jqt0JNvn0HBYfvrggULBKp27733nqxevVqaNWsmzZs3l2OOOUYb6adrHJw3PPnkk7rffvrpp/Ldd9/JNttsIw0aNJCWLVtK27Zt9fcoXR68RgIkQAIkQAKVQICCR0yf8tChQ2X69Om6dZjNf+qpp+Syyy7T5/fcc4+0bt06bcuPP/54eeedd2SnnXaS2267TTp37pxiM4AMevfuLYMHD7Z5/frrr3LTTTfJzTffbOPcAwgpY8eOlaOOOsqN1sePPvqoDBgwICXejcB9Y8aMkdq1a7vRBTnOV/A4//zzZebMmbZOOB80aJA9L/YB1KuMbUffvn3l4osvjrQKEGYwcM8UmjRpkqL6h3vC9BlTZpj+CsN8qKv5BfRXrBi1a9fO77KsWbNGC3XwJhYUDjvssBQbnKC0jCcBEiABEiCBOBOg4BHDp4sZ2H322UcLCvvuu688/PDDgplYM3g6++yzrRAS1HwzkNtuu+307O3ixYv1ygZcs8KGACsEWDnxCh4XXXSRPPHEEzpbDNpOPPFEPfMLGwQYu5uAY+TlBtcYHnXFKgnKxwwy8ly2bJlOvtdeewmElEKHOAgeGBDDmxVWrxAeeOABOeCAAyJFd9ddd8lHH33km+fy5cvl+eef19cgxM6aNSslXZg+YzLLt79C6IBXMAT0V6gi1qtXT7D6AvsYEx577DGrumji8HnhhRfq1Q4cY1UOKyRwXQyPcvjOPPvss3LooYfK1KlTkYSBBEiABEiABCqbgDJCZYgZAbXCkVCzy/pPrT7Y1imVDx23//77J/744w8b73dw3HHH2TyQl7INSKi9IpKSvvTSSwmlYmLj1Ky3vQf3q8GXvYaDRYsW2etHH3104rfffku6rlSzEsqWIqFUXZLicYK0SnXM3v/aa6+lpIk6Qq302PLUCkbW2ffp08feB3ZqhSfre8MmVKtcCdT7yiuvTCj3yUn1wDMsZkB/cfuREh5Tig/bZ0yGbjnZ9tevv/7a8lH2UAklSJvs9KfyFGavo+95g/IaZq/jfrV3ijdJQgn8CbXamBLPCBIgARIgARKoRALwfsMQMwJqFtcOiJS3Jts6DDyNQKJmY22834E7kFN2D35JUuLce5StRsp1RChVKlsHt26+iT2Ran8Ney8G14UOVVHw8Aob5nmXYvCrVPDs81Lqcb6PK6o+4+aTbX+FkGv44NgvdOzY0aaBEOEGZYNkr6mVP/cSj0mABEiABEiABHwIUNUqhgtehx9+uFZLguoIjMHNpnFQHenZs6du8cCBA+WCCy4IbL1RXUECqDVBvSld+OWXX7SqCdJAPcq18VD9zt766quv2s3usP/EaaedZq+5B1AXUzPSWkVow4YN+tK3334rsJdAUKsKcskll+jjQv3LV9UKrnlhGG8CVIyghlOMgOcGtTbvHh4w7L711lsFhu7FCPfee69cccUVuiioGsGGwvRDU36UfSbX/oo6wDYJRukIcGiw/fbb62P3H+o9evRoHQWVskMOOcRehm3KLrvsYs+z+Z7YxDwgARIgARIggQokQMEjZg8d3pSOOOII3Sp4kMK+HSb88MMPVoCAq13orQcFdyC3dOlS2XjjjYOS6ni33LQJnYt+tibYewI698ZOxEmedAiPXTCgL2TIV/AoZJ2yzVup0mk7g/vvv18b+5v74H2p0EKQUoPT3s5QJjyYYUDut2llVH0G5eTaX3EPvLVBEEaALYxXMEI8PJTBjgkBrpVPOeUUfWz+wWgfxvsmqBUULZzAxgqezODZioEESIAESIAESOBPAhQ8YtYTsIM1VhIQsB8FjGXdAI9GcFGLAPeh9evXdy/bYzOQw0y5GZzZiz4Hzz33nJx11ln6ClZatt12W59UyVEoA4bFJsATlFnRMHFuXlgFgbtdBD+hxdwT1WdVFjxcBq7RPtwRY+WjUAFG7CjDrLikE3Si6DOmHbn2V9x38MEH6xW1dH3c3d/Fb+d3rMJBuL/77rtNVZI+sdpz7bXX6lXApAs8IQESIAESIIEKJEDBI2YP3Z3FzdQ0qJCY/R28ac1ALsgTkTe9u/N3PqsR7oaHyFsZR+tZ7C222MIWBU9ByoZBn1PwsFiyOthzzz2tMODuMZLVzVkmgkoc+h/cMCNA3a5Tp06Bd4ftM27GufZX3Iu6wTMbhFvl+MDNzh5DODcbLmKFDX3bL6xYsUIeeeQRQZvgycoN+A5hBW+jjTZyo3lMAiRAAiRAAhVHgIJHjB459hRQHquyblG6/QVyHchhFcW4acVO6ddff33W9UBCd8PDIUOG6J3DvRko43LtnhfxFDy8dNKfY+UL7l0RMDj2U31Kn0Pmq+7eMV43y353h+0zbp659lfci93pzaaaUPHbdNNN3Sz1MdTEzN4ymQQpczNWQSBoYL8Zs/LjtQ8xaflJAiRAAiRAAhVFwMfgnFFVlMCMGTOsl50bb7wxoWw6fP9cz0d+LkDRfOMlCF59sg1wKQovQchfzX5ne5tOp4yRbd3hVtcvTJw40aZRu2/7JYk0Ll+vVpdeemkCLMxfkMekSCubJjO4Ijbem/CpVpfSpM7vkvv81L4hKa6Sg3IN02fcPPPpr+hDhovaa8TNzh67nrmUwGbjszlQKm02f7VpZza3MA0JkAAJkAAJxJoA3enG6PEqL1V2oJNukDRixAibLmh/inwGcsq2xOarZngDyWIPEezp4QbUwwwC/YQK7LlgBqlI55fGzS+K43wFj2Lu44G9JBYuXJhQ9i+BTR43bpxl261bt8B0+V7Anirm2UHoVDP+WWcVps+4heTTX+fNm2frDRe83r1tVq1aZa+j74G1G5RXq4RaZXSjko6V0bm9H/urMJAACZAACZBApROgqlVM1rd+/vln2W233XRrvG50vU103epiZ3G1wZ03ifUSlK2NBzL4/vvvpXXr1la95Mwzz9S7Zjds2FDUrLtgF2s1SJYpU6Zod7+urYG7szrqr4Qjad++vdSqVUugYgX3v2b3bZRVCFUr6PvDmNgE6OrPnTtXn3bt2lX23ntvc0l7DsMO134BBvIwlDcB54MGDTKnkX4abvAeBfuK5s2ba7ew8NAE3tOmTbPqRCgYKnBQhYsqwK6jTZs21mEBdgJXg3Tf7DfZZBNp3Lhx0rUwfcbNKB9VK/XyFyWwWBU0eKyCswM4RoDqVf/+/XU/RTnDhw+3rqhNufD2pjbC1DzRP+AtbKutthLYe7zyyivaDa9x5IDd2/E9YCABEiABEiCBSiZAwSMmTx+DZAzGETp37pzkQtXbROidw9gYIUhIyWcgh/xgjAv9fqPbjrig4AoeSHP11VfL1KlTg5JrD13GBXAhBA/XI1hgJf5zAftUwCuSXyiF4OFXD28cHAmYPSm81/I9h+AA17HZBLUqYgU5N32YPmPyybe/QtCEgJyuv2IPGwhwEILdYAQPN87vOBt7F7/7GEcCJEACJEACcSNAwSMmTxR7DMD9KwJmnTEDmy50795dFixYoJMo25Ck2XxEwhUvBmWYxYVL1FwCZnkhRLj7G7j3w6gdM8Uoww1YtVH2EClCE4Sj008/Xc9Gm9l0pRojw4YNc28PfQyXqPCmlU3AQPSggw7yTYpZc3cfEpxj9rwQAQN/pUolcE27bNky3yKwagXD73bt2vleDxPp7g2TKZ90q2f59hlTZpj+ipUhGJC7q10mX3ixwmqb3z42qDO+d9jrw09wwUaaeO5YVaxevbrJkp8kQAIkQAIkULEEKHhU7KMvfMOx7wYGdRgQY+CFgRjUTSBIpAtr164VrIasXr1amjZtqtVzOHBLR+zPa+AFl8Pwbgb3xNi8Drtx//Wvf818c5mkyLfPRFF9CFHYSBACBVTCsELjt6mgtyxs1oh+rmxCNHu4gAZ79PVs7vfmx3MSIAESIAESiCsBCh5xfbJsFwmQAAmQAAmQAAmQAAmUEQEKHmX0MFgVEiABEiABEiABEiABEogrAQoecX2ybBcJkAAJkAAJkAAJkAAJlBEBCh5l9DBYFRIgARIgARIgARIgARKIKwEKHnF9smwXCZAACZAACZAACZAACZQRAQoeZfQwWBUSIAESIAESIAESIAESiCsBCh5xfbJsFwmQAAmQAAmQAAmQAAmUEQEKHmX0MFgVEiABEiABEiABEiABEogrAQoecX2ybBcJkAAJkAAJkAAJkAAJlBEBCh5l9DBYFRIgARIgARIgARIgARKIKwEKHnF9smwXCZAACZAACZAACZAACZQRAQoeZfQwWBUSIAESIAESIAESIAESiCsBCh5xfbJsFwmQAAmQAAmQAAmQAAmUEQEKHmX0MApRlbffflt+//13nXXdunWlUaNGhSgmNnl+9NFHsmTJEvniiy/ku+++k+2331522GEH2X///WWzzTYr63ZW5bqXNVhWjgRIgARIgARIIBICFDwiwViemXz11VfSqlUrWzkc33ffffacB/8l8Mgjj8jUqVNl8eLF/410jrbeemsZMmSI/P3vf5fq1as7V0p/WJXrXnp6rAEJkAAJkAAJkECxCFDwKBbpEpTz4IMP6sGyW/Qbb7whderUcaN4rAh06dIlRejACsePP/6YxGf48OHSs2fPpLhSn1TlupeaHcsnARIgARIgARIoHgEKHsVjXfSSevXqJXPnzk0qd/z48XLssccmxfHkv4LH2WefLccdd5w0bdpUatWqJT/88IPccsstMmnSJIvpqaeekl122cWel/rACB5Vse6lZsfySYAESIAESIAEikeAgkfxWBe1pPXr18see+yhyzzhhBNkxowZ+hiD1HHjxhW1LlWhsCeffFJatmwpUKnyCwMHDrQML7/8cjnrrLP8kpUkrirXvSTAWCgJkAAJkAAJkEBJCFDwKAn2whc6Z84cOffcc3VBmK2H4PH000/r8/fff19q1qyZthIPPfSQrFy5UmCQfvLJJ2tja9iHvPXWW/LNN99Iw4YNpU2bNtKtWzdfo2sYtb/44ovaUPvDDz/UKwi77767Xm2BsXZQ+Oyzz+SFF17Q5cDAG2U1btxYdt11V8H9HTp0kGrVqgXdXrB4l+eJJ54oY8eODSxr9uzZ8sknn9jr++23nxx44IH2vNgHudQ9n7qhr3z++ecZb4VQ16NHj8B0+fYZZBi2vy5YsEDmz58v7733nqxevVqaNWsmzZs3l2OOOUbq168fWGdcgPMGCH/ot59++ql2SrDNNttIgwYNtDDbtm1b/T1KmwkvkgAJkAAJkEAFEKDgEdOHPHToUJk+fbpu3euvvy5QD7rsssv0+T333COtW7dO2/Ljjz9e3nnnHdlpp53ktttuk86dO6fYOyCD3r17y+DBg21ev/76q9x0001y88032zj3AHYTGLQfddRRbrQ+fvTRR2XAgAEp8W4E7hszZozUrl3bjS74MYS28847T5fzP//zP3LllVcGlnn++efLzJkz7XWcDxo0yJ4X+yCXuudTt+7duwsG7plCkyZNUlT/cE+YPmPKDNNfr7vuOrnjjjtMVkmf6K8TJkyQdu3aJcWbkzVr1sipp54qEK6DwmGHHSZ33nln0GXGkwAJkAAJkEDFEKDgEcNHjRnYffbZRwsK++67rzz88MN6JtYMnmALYISQoOabgdx2220nmL2FtycMwlq0aKGN0z/44APByolX8LjooovkiSee0NkiPVYHMPP78ccfC4zdTcAx8nKDawyPusLOAuXDrS3yXLZsmU6+1157CYSUYgYMTmHrgZDJTqbcBI9c6p4P07vuukvgytcvLF++XJ5//nl9CULsrFmzUpKF6TMms3z7q8sG/RWqiPXq1ROsvjzzzDMme3nssces6qKNVAcXXnihXu1AHFblsEKy5ZZbCjzK4Tvz7LPPyqGHHqo9prn38ZgESIAESIAEKpJAgiF2BNQKR0LNLus/tfpg26dUPnSc2pMi8ccff9h4vwNlYG3zQF5XXXVV4qeffkpK+tJLLyWUiomNU7Pe9h7crwZf9hoOFi1aZK8fffTRid9++y3pulLNSkyePDmhVF2S4nGCtEp1zN7/2muvpaQpVIQSfBLKXsaW/eWXX6Ytqk+fPjYt2KkVnrTpC3kx17pHWRf0F7cfKeExJfuwfcZk6JaTbX/9+uuv7XPC81WCtMlOf6pVCnsdfc8blMczex33r1u3zpskoVSvEmq1MSWeESRAAiRAAiRQiQSkEhsd9zarWVw7IFLuc21zITwYgUTNxtp4vwN3IHfOOef4JUmJc+9Rthop1xGhVKlsHdy6+Sb2RL755pv2XqX+5blauFO3zhiMZgrlJHjkWvdMbcvlulLBs89Lqcf53hpVn3Hzyba/Qsg13wcc+4WOHTvaNBAi3KBskOw1tfLnXuIxCZAACZAACZCADwGqWsVwnevwww/XaklQHYExeI0aNXQroTpi9qCAl6YLLrggsPVGdQUJoNYE9aZ04ZdfftGqJkgD9SjXxkP1O3vrq6++KlBvQRg1apScdtpp9pp7AHUxNSOtDdw3bNigL3377bcCNSYENbiXSy65RB8X8h/sYUaMGKGLOOiggwTnhmdQudgrBYbxJkDFCGo4xQ751D2qOt57771yxRVX6OygagQbCi+3KPtMrv0VFYNtEozSEWAYjl3qvQH1Hj16tI6GStkhhxxik8A2xXWrnM33xN7MAxIgARIgARKoQAIUPGL20OFN6YgjjtCtwn4dsEcwAXtSGAECrnahtx4U3IHc0qVLZeONNw5KquPdctMmdC762Zq8++672pbC2Ik4yZMO4bELBvSFDK5RNjwygVcmD0eFrE8ueZey7koNTns7Q33hwQwDcr9NK6PqMygn1/6Ke+CtDYIwAozDvYIR4uGhDHZMCNdcc42ccsop+tj869evnzz++OPmVNQKihZOYGMFT2awb2IgARIgARIgARL4kwAFj5j1BHjPwUoCwkknnaSNZd0mXnzxxdpFLeLgPjRoIG0Gchhwm8GZm4/3+LnnnrN7W2ClZdttt/UmSTlHGTAsNgGeoMyKholz88IqCNztIvgJLeaeKD5feeUVO8hEHR555BHt4SuKvAudRynrDhfMcHlsdnyHm9mg1Z4o+oxhmWt/xX0HH3ywXlFL18fhEQ7fIwQIGfhzA1bhINzffffdbrQ9xmrPtddeq1cBbSQPSIAESIAESKBCCVDwiNmDd2dxMzUNKiRwBeoXzEAuyBOR9x6oF3Xt2lVH57Ma4W54iEzgrhZ12GKLLWxR8BTUqlUrfV5IwQPeiODdyAQ/D1zmWrl9lrLuUIlD/4MbZgSo23Xq1CkQUdg+42aca3/FvagbPLNBsFSOD9zs7DGEc7P3CFbY0Lf9wooVK7RwijbBk5Ub8B3CCt5GG23kRvOYBEiABEiABCqOAAWPGD1y7CmgPFZl3aJ0+wvkOpDDRn8HHHCALhs7pV9//fVZ1wMJ3U3uhgwZYvfMcDNRxuXaPS/iCiV4wC0s6m9m7KdMmSLYAK4qhFLX3d07xutm2Y9f2D7j5plrf8W92JcFKmkIUPHbdNNN9bH7D2piZm+ZTIKUuQ+rIBA0sN+M6Ude+xCTlp8kQAIkQAIkUFEEfAzOGVVFCajdya2XnRtvvDGhbDp8/9SqgU3n5wIUzTdeguDVJ9tgXM4ifzX7ne1tOp0yRrZ1gltdvzBx4kSbZuTIkX5JQsXBExdcDRtPR37uX7Mp4NJLL9Xud8EDf0Eek7LJK9s0UdU92/K86dznd8YZZ6S4SvamN+dh+ozJA5/59Ff0IfOs1V4jbnb22PXMpVYzbHw2B7feeqvNXxn6Z3ML05AACZAACZBArAnQnW6MHq/yUmUHOukGScpLk02n7Cp8CeQzkFO2JTZfNcPrmy8isYcI9vRwA+phBoF+QgX2XDCDVKTzS+Pml+uxsk1ImH1OkL9Sr8o1C5u+2O50o6y7bUQOB9hTxTw7CJ1qxj/ru8P0GbeQfPrrvHnzbL3hgte7t82qVavsdfQ97NvhBuXVKqFWGd2opGNldG7vnz59etI1npAACZAACZBAJRKgqlVM1rd+/vln2W233XRroLPuutH1NtF1q4udxdUGd94k1ktQtjYeyOD777+X1q1bW/WSM888U9TstzRs2FDUBoCCXawXLlwoUF/CLuTwamSC2iNBzM7qqD9c2LZv315q1aolULGC+18YLpsQtaqV0fdH/jA27tu3rykq5RMemuAxLCgUe+fyKOse1KageNh1tGnTxjosgKtkNUj3Tb7JJptI48aNk66F6TNuRvmoWqkXviiBRe8wjrzgsQrODuAYAapX/fv31/0U14YPH25dUeMcAd7e1EaYWjUP9k0wot9qq60E9h4w8IcNFdTJELB7O74HDCRAAiRAAiRQyQQoeMTk6cOgFYNxhM6dO4vasTywZdA733PPPfX1ICEln4EcMoQxLvT7jW57YCXUBVfwQLqrr75apk6dikPfAINv4wI4asHjb3/7m2+ZfpGZhLFiCx5R1t2vveniIDjAdWw2Qa2KyNy5c1OShukzJrN8+yu8VkFATtdf4YJ62rRpWgg25eHTCB5unN9xNvYufvcxjgRIgARIgATiRoCCR0yeKPYYuP3223VrMOtsPEwFNa979+6yYMECfVnZhsjee++dlBQuRDEowywuXKLmEjDLCyHC3d/AvR9G7ZgpNm5KzTWs2ih7iBShCcLR6aefrmejzWy6Uo2RYcOGmVtDf+YyeM/EBLPm7j4kOMfseaFClHXPtY7u3jCZ7k0nsOXbZ0yZYforVuJgQI7+7g3wYoXVNr99bFBnfO+w14ef4IKNNPHcsapYvXp1b9Y8JwESIAESIIGKI0DBo+IeefEajH03MKiDWhUGXhiIQd0EgkS6sHbtWr0asnr1amnatKlWz+HALR2x+FzLt89EQQBCFDYShEABlTCs0PhtKugtS9mG6H6ubEIEnuXgAhobB6KvZ3O/Nz+ekwAJkAAJkEBcCVDwiOuTZbtIgARIgARIgARIgARIoIwIUPAoo4fBqpAACZAACZAACZAACZBAXAlQ8Ijrk2W7SIAESIAESIAESIAESKCMCFDwKKOHwaqQAAmQAAmQAAmQAAmQQFwJUPCI65Nlu0iABEiABEiABEiABEigjAhQ8Cijh8GqkAAJkAAJkAAJkAAJkEBcCVDwiOuTZbtIgARIgARIgARIgARIoIwIUPAoo4fBqpAACZAACZAACZAACZBAXAlQ8Ijrk2W7SIAESIAESIAESIAESKCMCFDwKKOHwaqQAAmQAAmQAAmQAAmQQFwJUPCI65Nlu0iABEiABEiABEiABEigjAhQ8Cijh8GqkAAJkAAJkAAJkAAJkEBcCVDwiOuTZbtIgARIgARIgARIgARIoIwIUPAoo4dRiKq8/fbb8vvvv+us69atK40aNSpEMbHI86effpIlS5bIhx9+KKtWrZJ169ZJ/fr1Zccdd5QWLVrIlltuWbbtrMp1L1uorBgJkAAJkAAJkECkBCh4RIqzvDL76quvpFWrVrZSOL7vvvvsOQ/+S+CWW26R66677r8RnqPNNttM+vfvL2eccYbUqFHDc7W0p1W57qUlx9JJgARIgARIgASKSYCCRzFpF7msBx98UIYMGZJU6htvvCF16tRJiuOJyKhRo+TOO+9MQgFh48cff0yK69evn+CvnEJVrns5cWRdSIAESIAESIAECkuAgkdh+ZY09169esncuXOT6jB+/Hg59thjk+J4InLHHXfIxx9/LO3bt9dqVRDOEomEvPvuu/LMM8/IuHHjLKbHH39cdt99d3te6oOqXPdSs2P5JEACJEACJEACxSNAwaN4rIta0vr162WPPfbQZZ5wwgkyY8YMfdylS5ekQXRRK1WFC5swYYLldtVVV0mPHj2qTGuqct2rDGRWlARIgARIgARIICMBCh4ZEVXNBHPmzJFzzz1XV37SpEla8Hj66af1+fvvvy81a9ZM27CHHnpIVq5cKTBIP/nkk+WLL77Q9iFvvfWWfPPNN9KwYUNp06aNdOvWTaCS5A0wan/xxRetsXbTpk31KgFWW3bYYQdvcnv+2WefyQsvvCAoB2WirMaNG8uuu+6q7+/QoYNUq1bNpi/WwcsvvyynnnqqLq579+4ycuTIwKJnz54tn3zyib2+3377yYEHHmjPi32QS93zqRv6yueff57x1q233jqtwJZvn0HBYfvrggULZP78+fLee+/J6tWrpVmzZtK8eXM55phjtIOBdI2D84Ynn3xS99tPP/1UvvvuO9lmm22kQYMG0rJlS2nbtq3+HqXLg9dIgARIgARIoBIIUPCI6VMeOnSoTJ8+Xbfu9ddfl6eeekouu+wyfX7PPfdI69at07b8+OOPl3feeUd22mknue2226Rz584p9g7IoHfv3jJ48GCb16+//io33XST3HzzzTbOPYCQMnbsWDnqqKPcaH386KOPyoABA1Li3QjcN2bMGKldu7YbXfBjqFcZ246+ffvKxRdfHFjm+eefLzNnzrTXcT5o0CB7XuyDXOqeT90giGHgnik0adIkRfUP94TpM6bMMP0VTgWgruYX0F+xYtSuXTu/y7JmzRotkMITWlA47LDDUuyHgtIyngRIgARIgATiTICCRwyfLmZg99lnHy0o7LvvvvLwww8LZmLN4Onss8+2QkhQ881AbrvtttOzt4sXL9YrG3ArC/uHDz74QLBy4hU8LrroInniiSd0thi0nXjiiXrmF/YTMHY3AcfIyw2uMTzqilUSlI8ZZOS5bNkynXyvvfYSCCnFChhUwpsVVoAQHnjgATnggAMCiy8nwSPXugc2Ks2Fu+66Sz766CPfFMuXL5fnn39eX4MQO2vWrJR0YfqMySzf/gqhA17BENBfoYpYr149weoLbHtMeOyxx6zqoonD54UXXqhXO3CMVTmskMDtMjzK4Tvz7LPPyqGHHipTp05FEgYSIAESIAESqGgCFDxi+Pjhuapr1666ZVhBwOAIATOvUGWCyssrr7ySVmXJDBSv31kAADDESURBVOT0jerfmWeeqVc2NtlkExOlZ7khFBx99NE6buHChXLaaafpYwgH//znP2Xbbbe16TEQw8AOAYM0zMS7rmmh6rJo0SI56aSTdB3tjeoAwhQG9EZdzE9wcdOHOUbea9eu1apeGCgbgQN5gsMVV1yRNvtSCh5h6562YTle/Pnnn+WUU07RK2e4FatgnTp1SsolbJ8xmeXTX6FSZVTgIHRAXWuXXXYxWcqUKVOsSh1U/G699VZ7DQeuHRXux6rP5ptvnpQG3zeob/mt8CUl5AkJkAAJkAAJVAIB5bmHIWYE1CxuQqm16D8lhNjWKaNoG6+EABvvd3DcccfZtOecc45fkpQ49x414Eq5jgglCNl83br5JvZEvvnmm/Zepf7luRrdqdrvxJZjOOJTqatlVUifPn2S7leqZVndF0WisHWPog4mD6WCZzko9TgTnfQZVZ9x88m2v06ePNnWD8d+oWPHjjaNWjVMSqJskOw1tfKXdI0nJEACJEACJEACqQS44hFD6fLwww/XakmYhYWRtllVgOpIz549dYsHDhwoF1xwQWDr3RlkqDVhBSNd+OWXX/QqBtJAPcq18VDdzt766quv2o36sP+EWSGxCf5zgBWOr7/+Wq82bNiwQcd+++23etUDJ2pwL5dccsl/Ukf7gbZDNcy7hwdWijDrDWPxdAErTjCMNwEqRljhKUYIW/eo6njvvffalSGoGsGGwvRDU0aUfSbX/oo6wDYJqxwIcGiw/fbb62P3H+o9evRoHQWVskMOOcRehm2Ku0KSzffE3swDEiABEiABEqhAAhQ8YvbQ4U3piCOO0K2CByns22HCDz/8YAUIuNqF3npQcAdyS5culY033jgoqY53y02b0LnoZ2uCfTOgc2/sRJzkSYfw2AUD+kKGP/74Q+vq33///dpg3pQFD0bFEiRMmbl+lrLur732mvZ2hjrDgxkG5H6bVkbVZ1BOrv0V98BbGwRhBNjCeAUjxMNDGeyYEK655hqtOqZP/vMPDgegMmgCDOghnMDGCmpc8GzFQAIkQAIkQAIk8CcBCh4x6wnYfRsrCQiwlTA2FaaZ8MYEF7UIsKmoX7++uZT0aQZymOU3g7OkBJ6T5557Ts466ywdi5UW17bDk9SeogwYFpsAT1Cwj3CDmxdWQaAzj+AntLj3RX3sGr776ftHXV6U+RWz7rCHAR+zWpROSIuizxhOufZX3HfwwQfrFbV0fRwe4fA9QvDbtR6rcBDu7777bp3G+w+rPddee61eBfRe4zkJkAAJkAAJVBoBCh4xe+LuLG6mpkGFxOxN4U1rBnJBnoi86V2D9nxWI1xDXeR95ZVX6lnsLbbYwhYFT0HKhkGfF1vwQKF77rmnHVC7+3TYCpbxQTHqDpU49D+4YUbwMyZ3EYXtM25eufZX3AtDd3hmg3ALpwZ+AcK52SwSK2xmbxxv2hUrVsgjjzwiaBM8WbkB3yGs4G200UZuNI9JgARIgARIoOIIUPCI0SPHngL7779/1i1Kt79ArgM5rKIYF7PYKf3666/Puh5I6G54OGTIEDnvvPNS7lfG5do9Ly6UQvDA6hE8cyFggOmnPqQvluG/YtTd3TvG62bZD0nYPuPmmWt/xb3oY8ZLGlT8Nt10UzdLfQw1MbO3TCZBytyMVRAIGthvxqz8eO1DTFp+kgAJkAAJkEBFEUi1N2dMVSUwY8YM62XnxhtvTCibDt8/1/PRunXrfJtrvATBq0+2QdmN6PKRv5r9zvY2nU4ZI9u6qx3Pfe+dOHGiTaN2DvdNU6jI3377zZYND1dqhSawqEsvvTQBFuYvyGNSYAYRX8il7vkW7T4/tedJAmVmE8L0GTf/fPor+pDxWqb2GnGzs8euZy4lbNr4bA6UIwKbv9q0M5tbmIYESIAESIAEYk1AYt26Cmuc8lJlBzrpBkkjRoyw6ZRdhS+lfAZyyrbE5qtmeH3zRaQyfE4o1Zak66iHGQT6CRXKw5UeyKdLk5RhDidqVjqh9pNIKBuSwLvGjRtn69etW7fAdLhQTHe6Udc9bcMCLipjcssGQqea8Q9ImRodps+4ueXTX+fNm2frDRe86JduWLVqlb0OAQms3aC8WiXUKqMblXSsjM7t/dOnT0+6xhMSIAESIAESqEQCVLWKyfoWNmvbbbfddGu8bnS9TXTd6mJncbXPhDeJ9RKUrY0HMvj++++ldevWVr0Em+1hx++GDRuKmgEX7GKNDeOwMRt2IXftJNyd1VF/JRxJ+/btpVatWgIVK7j/dTfyi1LVypQND0ywUWjevLl2rQovR6jztGnTrEoO2gk1MqiTBYVibiAYdd2D2hQUD7uONm3aWIcF2AlcDdJ9k2PzycaNGyddC9Nn3IzyUbVSL3xRAotVn8Nmh3B2AMcIUL3q37+/7qcoZ/jw4dYVtSkX3t6weSb6AjbshKezrbbaSmDvgQ06YUNlHDlg93Z8DxhIgARIgARIoJIJUPCIydOHQSsG4widO3dOcv/qbSL0zmFsjBAkpOQzkEN+MMaFfj/KyBRcwQNpr776apk6dWrgbbBTMC6ACyF4BBbsXIAxvtnXwYlOOiyF4JFUgYCTbOoecGtgNAQHuI7NJqjVKpk7d25K0jB9xmSWb3+F1yoIyOn6K/awgfAJIdgNRvBw4/yOs7F38buPcSRAAiRAAiQQNwIUPGLyRLHHwO23365bg1lnzMCmC927d5cFCxboJMo2RPbee++k5HAhikEZZnHhEjWXgFleCBHu/gbu/TBqx0yxcVNqrmHVRtlDpAhNEI5OP/10PRttZtOVaowMGzbM3BrqE4NnpUolcO+KlRi/gJUfGE+3a9fO73JSHGbN3X1IcI7Z80KEqOueax3dvWEy3Ztu9SzfPmPKDNNfsaoFA3L0d2+AFyustvntY4M643uHvT78BBdspInnjlXF6tWre7PmOQmQAAmQAAlUHAEKHhX3yIvXYOy7gUEdBvMYeGEgBnUTCBLpwtq1a7Ua1urVq6Vp06ZaPadYAzeUCbe98BAGF7/YAA47Wv/1r39NV+WyuFaV624A5ttnzP1hPiFEYSNBCBRQCcMKjd+mgt4ysFkj+rmyCdH9Bi6g0W/Q17O535sfz0mABEiABEggrgQoeMT1ybJdJEACJEACJEACJEACJFBGBCh4lNHDYFVIgARIgARIgARIgARIIK4EKHjE9cmyXSRAAiRAAiRAAiRAAiRQRgQoeJTRw2BVSIAESIAESIAESIAESCCuBCh4xPXJsl0kQAIkQAIkQAIkQAIkUEYEKHiU0cNgVUiABEiABEiABEiABEggrgQoeMT1ybJdJEACJEACJEACJEACJFBGBCh4lNHDYFVIgARIgARIgARIgARIIK4EKHjE9cmyXSRAAiRAAiRAAiRAAiRQRgQoeJTRw2BVSIAESIAESIAESIAESCCuBCh4xPXJsl0kQAIkQAIkQAIkQAIkUEYEKHiU0cNgVUiABEiABEiABEiABEggrgQoeMT1ybJdJEACJEACJEACJEACJFBGBCh4lNHDKERV3n77bfn999911nXr1pVGjRoVopjY5gl2YGjCLrvsIptttpk5LdvPL774Qn788Uddv4YNG0qtWrXKtq6sGAmQAAmQAAmQQGUQoOAR4+f81VdfSatWrWwLcXzffffZcx5kJjBlyhQZOXKkTQh+LlN7oUwO3nzzTbnlllvk6aeftjWaPHmyHHnkkfacByRAAiRAAiRAAiRQCgIUPEpBvUhlPvjggzJkyJCk0t544w2pU6dOUhxP/Alg1eCQQw5Juliugsf8+fNl4sSJsnDhwqT64oSCRwoSRpAACZAACZAACZSAAAWPEkAvVpG9evWSuXPnJhU3fvx4OfbYY5PieOJPoGfPnvLMM88kXSxHwQPCZNeuXZPqCXUwo2pFwSMJDU9IgARIgARIgARKRICCR4nAF7rY9evXyx577KGLOeGEE2TGjBn6uEuXLjJu3LhCF1/l8//3v/8tffv2tcwee+wxfVyOgsfrr78uJ510kq4fPs877zyZN2+eXHPNNTqOgofGwH8kQAIkQAIkQAIlJkDBo8QPoFDFz5kzR84991yd/aRJk7TgYfT+33//falZs2baoh966CFZuXKlwCD95JNPFqgdYdD91ltvyTfffCMwWG7Tpo1069bN19gaBtkvvviiLFmyRD788ENp2rSp7L777nq1ZYcddggs+7PPPpMXXnhBl4MyUVbjxo1l11131fd36NBBqlWrFnh/FBe+++47rWKFFYMRI0YIbGVgN4GQjeAxe/Zs+eSTT2xV9ttvPznwwAPtedQHH3zwgUybNk3OOecc/VyQ/+233140wQN95fPPP8/YrK233lp69OgRmC7fPoMMw/bXBQsWCNTV3nvvPVm9erU0a9ZMmjdvLsccc4zUr18/sM64AAcETz75pO63n376qaD/bLPNNtKgQQNp2bKltG3bVn+P0mbCiyRAAiRAAiRQAQQoeMT0IQ8dOlSmT5+uW4cZ8aeeekouu+wyfX7PPfdI69at07b8+OOPl3feeUd22mknue2226Rz585Wdce9sXfv3jJ48GAb9euvv8pNN90kN998s41zD6ACNHbsWDnqqKPcaH386KOPyoABA1Li3QjcN2bMGKldu7YbHenxsGHD5P7779dtf+KJJ+SGG27ISfA4//zzZebMmbZOOB80aJA9L8ZBMQWP7t27CwbumUKTJk1SVP9wT5g+Y8oM01+vu+46ueOOO0xWSZ/orxMmTJB27dolxZuTNWvWyKmnnqqFaxPn/TzssMPkzjvv9EbznARIgARIgAQqjgAFjxg+cszA7rPPPlpQ2HfffeXhhx8WzMSawdPZZ59thZCg5puB3HbbbadnbxcvXqxXNlq0aKGN0zHLjpUTr+Bx0UUXCQbrCBi0nXjiiXrm9+OPPxYYu5uAY+TlBtcYHnXFKgnKxwwy8ly2bJlOvtdeewmElEKEl19+WQ8kkfe//vUvPWONgWkuKx6VJnjcdddd8tFHH/k+juXLl8vzzz+vr0GInTVrVkq6MH3GZJZvf3WfLforVBHr1aunXSi79j1QtTOqi6ZMfF544YV6tQPHWJXDCsmWW26pV8nwnXn22Wfl0EMPlalTpyIJAwmQAAmQAAlUNoEEQ+wIqBWOhJpd1n9q9cG2T6l86Lj9998/8ccff9h4v4PjjjvO5oG8rrrqqsRPP/2UlPSll15KKBUTG6dmve09uF+pKNlrOFi0aJG9fvTRRyd+++23pOtKNSuh7BESStUlKR4nSKtUx+z9r732WkqasBFon2HUr18/m51aYbHlos2ZQp8+fWx6sFMrPJluify6WqWydVCrL5Hnn02G4On2IyU8ptwWts+YDN1ysu2vX3/9tWWkhIqEEqRNdvpTrVLY6+h73qBU8ex13L9u3TpvkoQS+BNqtTElnhEkQAIkQAIkUIkEpBIbHfc2q1lcOyBSHo9scyE8GIFEzcbaeL8DdyCnbAf8kqTEufcoW42U64hQqlS2Dm7dfBN7ItUeFfZeDKyjDsro3uav7Fts9hQ8LIqcDpQKnuUJhn4hqj7j5pNtf4WQa74POPYLHTt2tGkgRLhB2SDZa2rlz73EYxIgARIgARIgAR8CVLWK4YLX4YcfrtWSoDoCY/AaNWroVkJ1BC5iEQYOHCgXXHCBPvb7Z1RXcA1qTVBvShd++eUXrWqCNFCPcm08VL+zt7766qsC9RaEUaNGyWmnnWavuQdQF1Mz0trAfcOGDfrSt99+K1BjQlCrCnLJJZfo4yj+QXXM2J0MHz7cckLerjpONsblcG8Lw3gToGIENZxihmLaePi1695775UrrrhCX4KqEWwoTD806aPsM7n2V9QBtkkwSkeAQ4Ptt99eH7v/UO/Ro0frKKiUufu6wDYFO9mbkM33xKTlJwmQAAmQAAlUIgEKHjF76vCmdMQRR+hWYb8O7Nthwg8//GAFCOirGxex5rr76Q7kli5dKhtvvLF7OeXYLTflYkCEn63Ju+++q+0pjJ1IwK3aYxcM6KMIEHLgnQu7fqsZcG0Y7rY3V8EjijqFzaOUgodSg9M80QZ4MMOA3G/Tyqj6DMrJtb/iHnhrgyCMAM9rXsEI8fBQBjsmBLgnPuWUU/Sx+adU8uTxxx83p7r/QDiBjRU8mcGzFQMJkAAJkAAJkMCfBCh4xKwnwHsOVhIQsKcDjGXdcPHFF2sXtYiD+9AgV6FmIAcXqGZw5ubjPX7uuefkrLPO0tFYadl22229SVLOUQYMi02AJyizomHi3LwgIMDdLoKf0GLuyfUT3r+MEOO3okHBI3uicMEMl8dm80K4mQ1a7Ymiz5ia5dpfcd/BBx+sV9TS9XF3jxQIGfhzA1bhINzffffdbrQ9xmrPtddeq1cBbSQPSIAESIAESKBCCVDwiNmDd2dxMzUNKiRwBeoXzEAuyBOR9x5392zsH2IG8t50QefuhodIc+WVV+pZ7C222MLegv00WrVqpc+jFDyU7YtAjQYBg1BvwF4iJkAQ2mSTTQR7c9x6660muuw+S7HiAZU49D+4YUaAul2nTp0C2YTtM27GufZX3Iu6wTMbnqlyfOBmZ48hnJu9R9Cnzd44NsF/DlasWCGPPPKIoE3wZOUGfIewgrfRRhu50TwmARIgARIggYojQMEjRo8cewooj1VZtyjd/gK5DuQwOD/ggAN02dgp/frrr8+6Hkjobng4ZMgQvfu2NwOoQsE9L0KhBA9vmUHnhXTpG1RmLvGlEDwwMDd7x3jdLPvVPWyfcfPMtb/iXuzwbjbVhIrfpptu6mapj6EmZvaWySRImZuxCgJBA/vNmJUfr32ISctPEiABEiABEqgkAhQ8YvS03UFS3759pVevXr6tgyoMVGIQMDu9+eabp6TLZyC355576oEWjMsx65tpd3S3UKg4XX755ToqaIND7MD+j3/8Q6eJUvBYuHCh3rHarY97jM0XoXKDAB1/7GqNHd1hQ+MXsAGhq/cPI35jJ+CXvhBxxRY83OcXZEzu184wfcbNL5/+CpVEs7FfkGAAIdjsP4P9cLAvTrbhn//8p1azQvqrr75aTj/99GxvZToSIAESIAESiCcBH09XjKqiBNQA17r3VCofga0YMWKETRe0x4NxTwp3otkGNZCz+aqBXOBt2EMEe3q4AfUwrk1HjhzpXtLH2HMBeyWkS5NyU0QRdKebHiT2VDHPRanCJdSMf/obnKth+oyTjd0vJJf+Om/ePFtvuOD17m2zatUqex19D/t2uEF5tUqoVUY3KulYCZ/2frUSlHSNJyRAAiRAAiRQiQS44hETefLnn3+W3XbbTbcGOuuuG11vE123ulBdUhvceZNYL0HZ2nggg++//15at25t1UvOPPNMOeOMM6Rhw4aiNgAU7GKN1YUpU6Zod7/wamSCu7M66q+EI2nfvr3UqlVLe5uC+1+zSoN7olzxMHUI+szVuLwUO5fDVsGsyqAdWHGaO3eublLXrl1l7733ts2D1zPszh1FgF1HmzZtrMMCsILHNL8A25jGjRsnXQrTZ9yM8lnxUC98UQK2YIdxBKxmwdkBHCNA9ap///66n+Ka18Uy4uDtTW2EKVAtBGMY0W+11VYCe49XXnlFu+E19kHYvR3fAwYSIAESIAESqGQCFDxi8vQx0MRgHKFz586idiwPbBn0zqHighAkpOQzkEN+MMaFWpHRbUdcUHAFD6SBOsrUqVODkmsPXcYFMAWPZEyuN7PkK6ln2GMDHp2iCBAc4Do2mwBXxUYYctOH6TMmn3z7K4Q1CMjp+ivseaZNm6aFYFMePo3g4cb5HWdj7+J3H+NIgARIgARIIG4EKHjE5IlijwHo9SNg1hkzsOlC9+7dZcGCBTrJjBkzkmbEEQlXvBiUYRYXLlFzCZjlhRDh2jm498OoHTPFKMMNWLVRO0inCE0QjqAfj9loM5uuVGMEthTFCFgRQr0Q7r//fr0/Q7pyUU93HxKcY/a8kAHuXOEJLJuAQfRBBx2UTdKMady9YTIlTrd6lm+fMWWG6a9YiYMBubtiZPKFFyustrn7uphrqDO+d9jrw09wga0TnjtWFatXr25u4ycJkAAJkAAJVCwBCh4V++gL33Dsu4FB3bJly/TACwMxqJtAkEgX1q5dK1gNWb16tTRt2lSr53Dglo5YfK7l22eiIAAhChsJQqCAShhWaPw2FfSWpWxDdD9XNiECz3JwAY2NA9HXs7nfmx/PSYAESIAESCCuBCh4xPXJsl0kQAIkQAIkQAIkQAIkUEYEKHiU0cNgVUiABEiABEiABEiABEggrgQoeMT1ybJdJEACJEACJEACJEACJFBGBCh4lNHDYFVIgARIgARIgARIgARIIK4EKHjE9cmyXSRAAiRAAiRAAiRAAiRQRgQoeJTRw2BVSIAESIAESIAESIAESCCuBCh4xPXJsl0kQAIkQAIkQAIkQAIkUEYEKHiU0cNgVUiABEiABEiABEiABEggrgQoeMT1ybJdJEACJEACJEACJEACJFBGBCh4lNHDYFVIgARIgARIgARIgARIIK4EKHjE9cmyXSRAAiRAAiRAAiRAAiRQRgQoeJTRw2BVSIAESIAESIAESIAESCCuBCh4xPXJsl0kQAIkQAIkQAIkQAIkUEYEKHiU0cMoRFXefvtt+f3333XWdevWlUaNGhWimCqf548//ihLly7N2I5tttlGdthhh4zpSp3giy++ELQJoWHDhlKrVq1SV4nlkwAJkAAJkAAJVDgBCh4x7gBfffWVtGrVyrYQx/fdd58958F/Cbzyyityyimn/Dci4Kh79+4ycuTIgKulj37zzTfllltukaefftpWZvLkyXLkkUfacx6QAAmQAAmQAAmQQCkIUPAoBfUilfnggw/KkCFDkkp74403pE6dOklxPBGp6oLH/PnzZeLEibJw4cKUx0nBIwUJI0iABEiABEiABEpAgIJHCaAXq8hevXrJ3Llzk4obP368HHvssUlxPEkWPAYPHiyHHXaYL5atttpK6tWr53utVJEQJrt27ZpU/GabbWZVrSh4JKHhCQmQAAmQAAmQQIkIUPAoEfhCF7t+/XrZY489dDEnnHCCzJgxQx936dJFxo0bV+jiq1z+7orHzTffLJ06daoybXj99dflpJNO0vXF53nnnSfz5s2Ta665RsdR8Kgyj5IVJQESIAESIIFYE6DgEdPHO2fOHDn33HN16yZNmqQFD6P3//7770vNmjXTtvyhhx6SlStXCgzSTz75ZIGxMuxD3nrrLfnmm2+0wXKbNm2kW7dugtl1b4BR+4svvihLliyRDz/8UJo2bSq77767Xm1JZ5z92WefyQsvvKDLQZkoq3HjxrLrrrvq+zt06CDVqlXzFhf6PErBY/bs2fLJJ5/YOu23335y4IEH2vOoDz744AOZNm2anHPOOfq5IP/bb7+9aIIH+srnn3+esVlbb7219OjRIzBdvn0GGYbtrwsWLBCoq7333nuyevVqadasmTRv3lyOOeYYqV+/fmCdcQHOG5588kndbz/99FP57rvvBE4IGjRoIC1btpS2bdvq71HaTHiRBEiABEiABCqAAAWPmD7koUOHyvTp03XrMCP+1FNPyWWXXabP77nnHmndunXalh9//PHyzjvvyE477SS33XabdO7c2aruuDf27t1boJpkwq+//io33XSTYNXAL0BIGTt2rBx11FEplx999FEZMGBASrwbgfvGjBkjtWvXdqNDH0cpeJx//vkyc+ZMWyecDxo0yJ4X46CYggcM7jFwzxSaNGmSovqHe8L0GVNmmP563XXXyR133GGySvpEf50wYYK0a9cuKd6crFmzRk499VQtXJs47yfU9u68805vNM9JgARIgARIoOIIUPCI4SPHDOw+++yjBYV9991XHn74YcFMrBk8nX322VYICWq+Gchtt912evZ28eLFemWjRYsW2jgds+xYOfEKHhdddJE88cQTOlsM2k488UQ98/vxxx8LjN1NwDHycoNrDI+6YpUE5WMGGXkuW7ZMJ99rr70EQkqUwRU8UC+sCMEdLVZbdt55Zz1rjRWbbEKlCR533XWXfPTRR75oli9fLs8//7y+BiF21qxZKenC9BmTWb79FUIHvIAhoL9CFRE2PFh9eeaZZ0z28thjj1nVRRupDi688EK92oE4rMphhWTLLbcUeJTDd+bZZ5+VQw89VKZOnYokDCRAAiRAAiRQ2QQSDLEjoFY4Emp2Wf+p1QfbPqXyoeP233//xB9//GHj/Q6OO+44mwfyuuqqqxI//fRTUtKXXnopoVRMbJya9bb34H41+LLXcLBo0SJ7/eijj0789ttvSdeValZC2SMklKpLUjxOkFapjtn7X3vttZQ0YSJefvllm7dh5/1UKy0JZTuTsZg+ffok5aVWeDLeE3UCtUpl66BWX6LOPqv80F/cfqSEx5T7wvYZk6FbTrb99euvv7aMlD1UQgnSJjv9qVYp7HX0PW9Qgqm9jvvXrVvnTZJQAn9CrTamxDOCBEiABEiABCqRgFRio+PeZjWLawdEyuORbS6EBzOYVrOxNt7vwB3IKdsBvyQpce49ylYj5ToilCqVrYNbN9/Enki1R4W9FwPrKIMreCgPUQk1k5047bTTEhhQGmb4vPzyyzMWS8HjT0RKBc+yg9DmF6LqM24+2fZXCLnm2eLYL3Ts2NGmgRDhBmWDZK+plT/3Eo9JgARIgARIgAR8CFDVKoYLXocffrhWS4LqCIzBa9SooVsJ1ZGePXvq44EDB8oFF1wQ2HqjuoIEUGuCelO68Msvv2hVE6SBepRr46H6nb311VdfFai3IIwaNUrU4N5ecw+gLqZmpLWB+4YNG/Slb7/9VqDGhKAG93LJJZfo4yj+ffnll3ovDxivu7t8//zzz1r///rrr7fFwJAZBuNBAe5tYRhvAlSMoIZTzFBMGw+/dt17771yxRVX6EtQNYINhemHJn2UfSbX/oo6wDYJzxIBDg223357fez+Q71Hjx6to6BSdsghh9jLsE3ZZZdd7Hk23xObmAckQAIkQAIkUIEEKHjE7KHDm9IRRxyhW4X9OrBvhwk//PCDFSDgahd660HBHcgtXbpUNt5446CkOt4tN21C56Kfrcm7776rde6NnYiTPOkQHrtgQF+soFaLBANPhHLfvRx1LKXgodTgtLcz1AMezDAg99u0Mqo+g3Jy7a+4B97aIAgjwPOaVzBCPDyUwY4JAe6Jvbvb9+vXTx5//HF9Hf/UCooWTmBjBU9m8GzFQAIkQAIkQAIk8CcBCh4x6wnwnoOVBATs6QBjWTdcfPHF2kUt4uA+NMhVqBnIwQWqGZy5+XiPn3vuOTnrrLN0NFZatt12W2+SlHOUAcNiE+AJyqxomDg3L6yCwN0ugp/QYu4pxCfcxWLmHgHG566hfCHKC5tnqQQPuGDGqhEM8xHgZjZotSeKPmM45dpfcd/BBx+sV9TS9XF3jxQIGfhzA1bhINzffffdbrQ9Rp+59tpr9SqgjeQBCZAACZAACVQoAQoeMXvw7ixupqZBhQSuQP2CGcgFeSLy3uPunp3PaoS74SHyvvLKK/Us9hZbbGGLgqegVq1a6fNiCx7KGF/v7YDCIQwpQ3lbr3I8KIXgAZU49D+4YUbItBFj2D7jcs+1v+JebBIJz2zpnieEc7P3CFbY0Lf9wooVK+SRRx4RtAmerNyA7xBW8DbaaCM3msckQAIkQAIkUHEEKHjE6JFjTwHlsSrrFqXbXyDXgRw2+jvggAN02dgp3bWJyKZC7oaHQ4YM0btve+9TxuXaPS/iiy14KA9NegNDlJ1uhhzXyyGUQvBw947xuln2YxK2z7h55tpfcS92eDebakLFb9NNN3Wz1MdQEzN7y2QSpMzNWAWBoIH9ZszKj9c+xKTlJwmQAAmQAAlUFAEfg3NGVVECM2bMsF52brzxxoSy6fD9U6sGNp2fC1A033gJglefbIPxAIX81ex3trfpdMoY2dYJbnX9wsSJE22akSNH+iUpWJzr9jWTB6NLL71Ue8MCD/wFeUwqWGVVxsV2p+s+vzPOOCPFVXJQW8P0GTfPfPor+pDxaqX2GnGzs8euZy61mmHjszm49dZbbf5q085sbmEaEiABEiABEog1AbrTjdHjVV6q7EAn3SBpxIgRNl3QHg/5DOSUbYnNV83wBpLFHiLY08MNqIcZBPoJFdhzwQxSkc4vjZtfLsfYIySde2Hs3eG6VVUbzqXNvtLc6WJPFfPsIHSqGf+0fNyLYfqMm08+/XXevHm23nDB693bZtWqVfY6+h727XCD8mqVUKuMblTSsTI6t/dPnz496RpPSIAESIAESKASCVDVKibrW3D7uttuu+nWQGfddaPrbaLrVhc7i6sN7rxJrJegbG08kMH3338vrVu3tuolZ555pqjZb2nYsKGowb1gF+uFCxfKlClTtLtfeDUywd1ZHfVXwpG0b99eu7aFihXc/8Jw2YQoVa2wMzrc48IIGjYvzZo1096I4AVsyZIlcsMNN9iy4aUJBtOuy11TJ/NZip3LYasAQ2gTYGcwd+5cfar2JZG9997bXNJez7A7dxQBdh1t2rSxDgvgKlkN0n2z3mSTTfRO8O7FMH3GzScfVSv1whclsOgdxpEXPFbB2QEcI0D1qn///rqf4trw4cOtK2qcI8Dbm9oIU6BaCMboP1tttZXA3uOVV17RbnihToaA3dvxPWAgARIgARIggUomQMEjJk8fA00MxhE6d+4sasfywJZB73zPPffU14OElHwGcsgQxrjQ7ze67YGVUBdcwQPprr76apk6dSoOfQM8dBkXwIUQPHwLdSLBCrr66fbwQPJSCB6uNzOnyr6H2GMDHp2iCBAc4Do2m6BWRaww5KYP02dMPvn2VwhrEJDT9VfsYTNt2rQUYdMIHqYOQZ/Z2LsE3ct4EiABEiABEogTAQoeMXma2GMABsUImHXGDGy6gL0olN2CTqJsQ5JmxBEJV7wYlGEWFzP8uQTM8kKIcPc3cO+HUTtmilGGG7Bqo+whUoQmDPhPP/10PRttZtOVaowMGzbMvT3vYxiOw82wMTT2y6hbt256w0IYlmcKmDV39yHBOWbPCxngzhWewLIJGEQfdNBB2STNmMbdGyZT4nSrZ/n2GVNmmP6KlTgYkLsrRiZfeLHCapvfPjaoM7532OvDT3DBRpp47lhVrF69usmSnyRAAiRAAiRQsQQoeFTsoy98w7HvBgZ1y5Yt0wMvDMSgbgJBIl1Yu3atXg1ZvXq1NG3aVKvnFGPghp2oUVcMKFGHv/zlL7LjjjtKo0aNfAee6drAa/kRyLfP5Fda8l0QorCRIJ5/48aN9WaAfpsKJt8lAlfL6OfKJkTgWQ4uoLFxIPp6Nvd78+M5CZAACZAACcSVAAWPuD5ZtosESIAESIAESIAESIAEyogABY8yehisCgmQAAmQAAmQAAmQAAnElQAFj7g+WbaLBEiABEiABEiABEiABMqIAAWPMnoYrAoJkAAJkAAJkAAJkAAJxJUABY+4Plm2iwRIgARIgARIgARIgATKiAAFjzJ6GKwKCZAACZAACZAACZAACcSVAAWPuD5ZtosESIAESIAESIAESIAEyogABY8yehisCgmQAAmQAAmQAAmQAAnElQAFj7g+WbaLBEiABEiABEiABEiABMqIAAWPMnoYrAoJkAAJkAAJkAAJkAAJxJUABY+4Plm2iwRIgARIgARIgARIgATKiAAFjzJ6GKwKCZAACZAACZAACZAACcSVAAWPuD5ZtosESIAESIAESIAESIAEyogABY8yehiFqMrbb78tv//+u866bt260qhRo0IUE7s8v/32W3nvvfdk8eLFsnbtWgG7nXfeWQ444ACpWbNmlWgvnjuevwm77LKLbLbZZuaUnyRAAiRAAiRAAiRQVAIUPIqKu7iFffXVV9KqVStbKI7vu+8+e86DVAK//vqrXHnllfKvf/0r9aKKwcB90aJFvtfKLXLKlCkycuRIWy08e7c/2As8IAESIAESIAESIIEiEKDgUQTIpSriwQcflCFDhiQV/8Ybb0idOnWS4njyJwGsclxwwQWycOHCJCQQNn788Ucb98knn9jjcj344osv5JBDDkmqHgWPJBw8IQESIAESIAESKDIBCh5FBl7M4nr16iVz585NKnL8+PFy7LHHJsXx5E8Cl19+uV0R2m677eQf//iH7L333nqV46effpIFCxbIjBkz5Kabbip7ZD179pRnnnkmqZ4UPJJw8IQESIAESIAESKDIBCh4FBl4sYpbv3697LHHHrq4E044QQ+YcdKlSxcZN25csapRZcr55ptvtP0GKtykSRO5//77tV1HlWmAU9F///vf0rdvXx2D5/3YY4/pYwoeDiQekgAJkAAJkAAJFJ0ABY+iIy9OgXPmzJFzzz1XFzZp0iQteDz99NP6/P33389oIP3QQw/JypUr9eD75JNPFqjuYOD61ltvCQbpDRs2lDZt2ki3bt18DZZh1Pziiy/KkiVL5MMPP5SmTZvK7rvvrldbdthhh0AIn332mbzwwgu6HJSJsho3biy77rqrvr9Dhw5SrVq1wPvzvXDzzTfLDTfcoG+fMGGCHHPMMflmJbNnzxZXHWu//faTAw88MO/8crnxu+++0ypWUA0bMWKEwM7nlltu0VkUSvBAX/n8888zVnPrrbeWHj16BKbLt88gw7D9FatZ8+fP1w4FVq9eLc2aNZPmzZvrflC/fv3AOuMCjPiffPJJ3W8//fRTwTPYZpttpEGDBtKyZUtp27ZtlRVi0zacF0mABEiABEggRwIUPHIEVlWSDx06VKZPn66r+/rrr8tTTz0ll112mT6/5557pHXr1mmbcvzxx8s777wjO+20k9x2223SuXPnJDsHc3Pv3r1l8ODB5lRgnA1VJAzk/QLsJcaOHStHHXVUyuVHH31UBgwYkBLvRuC+MWPGSO3atd3o0McnnniivPnmm1qIAq8wnqvOP/98mTlzpq0TzgcNGmTPC3kwbNgwvVqD5/bEE09oYarQgkf37t21GlqmdmElyav6h3vC9BlTZpj+et1118kdd9xhskr6RH+FINquXbukeHOyZs0aOfXUU7VwbeK8n4cddpjceeed3miekwAJkAAJkEDFEaDgEcNHjhnYffbZRwsK++67rzz88MOCmVgzeDr77LOtEBLUfDOQg60DZm/hVhaDsBYtWmjj9A8++ECwcuIVPC666CI94EW+SI8BPWZ+P/74Y4Gxuwk4Rl5ucI3hUVeskqB8zCBjEL1s2TKdfK+99hIIKVEGuMnF6sqRRx6pVdGwWoM/CCNmxQWrIFjpyRRKJXi8/PLLehCM+sErF2bbMagutOBx1113yUcffeSLZfny5fL888/raxCGZs2alZIuTJ8xmeXbX10+6K9QTatXr552Q+zayEBdzagumjLxeeGFF+rVDhxjVQ59ZMstt9QrTfjOPPvss3LooYfK1KlTkYSBBEiABEiABCqbQIIhdgTUjH1CzS7rP7X6YNunVD503P7775/4448/bLzfwXHHHWfzQF5XXXVVQhlYJyV96aWXEkrFxMYpdRV7D+5Xaj72Gg6UG1p7/eijj0789ttvSdfVQD8xefLkhFJ1SYrHCdIq1TF7/2uvvZaSJt+IX375xearVoUSSpiy54aj+VTG5RmL6dOnT9L9aoUn4z1hE+DZmOfbr18/m51aHbJ1wfMqZkCd3H6khMeU4sP2GZOhW062/fXrr7+2bJRQkVCCtMlOf6pVCnsdfc8blDqbvY77161b502SUAJ/Qq02psQzggRIgARIgAQqkYBUYqPj3mY1i2sHRMp9rm0uhAczgFazsTbe78AdyJ1zzjl+SVLi3HuUrUbKdUQoVSpbB7duvok9kWr1wd6r1L88V/M/XbFihc3X8MHnJZdcklD7YCSUHUvSdQhQ6UIpBA/lMMDWUdnm2OqVUvBQKni2TqiHX4iqz7j5ZNtfIeSa541jv9CxY0ebBkKEG5QNkr0GYZWBBEiABEiABEggPQGqWsVwwevwww/XaklQHYExeI0aNXQroToCN6sIAwcO1HtW6BOff0Z1BZeg1gT1pnRBrRpoVROkgXqUa+OhuqC99dVXX9XqP4gYNWqUnHbaafaaewB1MTUjrQ3cN2zYoC9hnw2oMSGowb0owUAfh/0HlbFOnTrZbGAE/cADD8jf/vY3G6cGpto2BREHHXSQTJs2zV7zHmCvFBjGmwAVI6jhFCpA7c3YzAwfPtw+Y5TnqhIVyrjcr1333nuvXHHFFfoSVI1gQ2H6oUkfZZ/Jtb+iDrBNglE6AhwabL/99vrY/Yd6jx49WkdBpczdGwW2KdgN3oRsvicmLT9JgARIgARIoBIJUPCI2VOHN6UjjjhCtwr7dWDfDhN++OEHK0BAX924WTXX3U93ILd06VLZeOON3cspx265KRcDIvxsTd59911tkwCbjnQBHrtgQB9F+PLLL5OM7TFY79q1a1LWEIQw6ISnLwTYfkCXv9QB9YJnMdRHzd5ro3b3WZVC8FBqcLpOYAMPZhiQ+21aGVWfQTm59lfcA29tEIQR4HnNKxghHh7K/r9A+5hAoK2tjSEiIgLMhhHAZW0MmzdvhnHBcQBKJ6A9VqCTzED7m0bBaAiMhsBoCIyGwGgIjIYAJAQAAAAA//8scVttAABAAElEQVTsfQm8lcP//0cpFSlaUCESKW0SUqiUpYQUSagkKUsUWtBC9SrxtSZRVCoU6pevCKWixU4JJUWRSoosWeL85z2+M/85z3mes597zzn3/Xm97n3mmX3eM8+985nPMnuFFAkpbxB44oknZMSIEXo8F110kZx33nlhY7vxxhvlhx9+0HFLly6VQw45JCzdvFxwwQWycuVKqVChgrz77rsmOvC5ePFi6d69u07fd999pXLlyoF5TQLauP76682rvPLKK9KnTx/7joBb199//y0bN27U6VdeeaXcfvvtYXmTffn999+ldu3atviHH34o5cqVs+8mMGTIEJk2bZp+ffHFF6VOnTomqdCeM2fOlIEDB+r2p0+fLk2aNAnry9133y2PPvpoYHpY5jS8bNmyRVq3bi2//vqrrm3evHlSq1Yt35rTsWZMxYmuV5Q75ZRTBP2Ntsbff/99wXcE6tu3r/7RL//7tXPnTnnggQdk6tSpbrQNn3baaTJ69Gg5+OCDbRwDRIAIEAEiQASKKgJ7kfHIr6nv1KlTXIwCRj1y5Ejp3LmzLwBmI1ezZk2ZP3++bx438oMPPpCOHTvqqKuvvtpuht080cK//fabHHfccTbLsGHDBH3Yf//9bdzWrVvtxjqdjAcaOPLII20769evt2E3MG7cOLn33nt11GOPPSatWrVykwslPHz4cJkyZYpuGxtoLxkmE/Fg4kqVKiXHH3+8TJgwwZs15fc//vhDsP7AsIIefvhhadOmTWC9qa4Zt+JE1yvKom+ff/65xmXVqlVudTYM5vzyyy/X72DwsLb9aPPmzfLCCy8IxrRo0aKwLPiGXnrpJdl7773D4vlCBIgAESACRKCoIUDGI49mfMeOHXLCCSfEPaLmzZsLJCR+lOhGDhvcxo0b66rat29vN+h+dfvFvf7663ZTN2DAAOnVq1dENkgiOnTooOPTzXgACyNN+eKLL6R48eIR7Y8dO1bGjx+v4/2kCxEFCiDCZTziba5evXoyZ86ceLPHnQ8bc0hgQNdcc43ceuutUcumumbcyhNdryiLNfbaa6/palavXi2lS5d2q9Rh4NSvXz8djsVImcKQgoDRGDNmjJX8gDk89dRTTRY+iQARIAJEgAgUSQTIeOTRtLubpBtuuEF69uzpOzqowkDFBITT6f322y8iXzIbubp16+qNFtRKcOpbsmTJiHqDIrCRv+OOO3TyU089JU2bNo3I+sgjj8g999yj49PNeKBt9AEECQ9Oqb3Uu3dvK/1ZsmSJVKtWzZtFvw8ePFigimXo2muv1Rtx857O54oVK+TTTz8NrPLll18WqAuBLrnkEjnqqKOkUqVK0q5du8AyySS48wf1okmTJvkyb966U1kzbl3JrFeoJBrGO4gxABM8a9Ys3dTzzz8vDRs2dJuNGoZUDGpWoDvvvFMuu+yyqPmZSASIABEgAkQg7xGAqhUpPxBQG9zQEUccoX+UykfgoIYOHWrzKbsK33znn3++znPmmWf6pvtFqo2crVdt5Pyy6Lh//vknpFRbwtLRD9P3u+66KywNL99//31IqWJFzRNRKIEI4GXaVyf1ESW/+eYbm458e/bsichjIhSDEpZXSUpMUoE/1am77cuyZcsy0v57771n21A2JiF14h93O6msGbeRZNbrwoULbb+vuuqqENalS9u2bbPpWHvKbsVNDv31118hJWUMi3NfFPNpyytJkJvEMBEgAkSACBCBIokAJR55wlq6BtLQ5f/oo48CT5zfeOMN6dGjhx45VJegQuSlZE6Qd+3apSUVxrC4W7du0rVrVy0ZUBt12bRpk+CE/sknn5QNGzaIa0vx9ddfS4sWLXQ30H/FHEnLli2lTJkyAhWr/v37WykNMqVb4qG+fm2zgX6Z+tVmVA488ECBGs7NN9+s+4y0QYMGBUqTkA4DeRjKG8I7yhcGZdq4HHYdzZo1sw4L0J5rq+OOGfYl1atXd6MklTXjVpTMesWcK4ZFPvnkE10VJEJwdgDHCJjzm266yc75bbfdZr8Z0+6aNWvknHPOEagWwr4JRvQHHHCAwN7jnXfe0TZUxsYmmoTM1McnESACRIAIEIF8R4CMR57MMFSbsBkHtW3bVh566KHAkYExgIoLKIhJSWYjh/pgjAv9fsN8IC6IXMYDeaCOMnny5KDs2kPX3LlzdXq6GQ9UCkNjGBKbzaJfR7C5nD17tuyzzz5+yTquKDEeYBwaNGgQiIWboCRFsmDBAjdKh1NZM6ayZNcr1NDAIEdbr7CJmTFjhmaCTXt4GsbDjfMLx2Pv4leOcUSACBABIkAE8g0BMh55MqOjRo2SiRMn6tHg1Nl4mAoaXpcuXWT58uU6GRvp+vXrh2WFC1FsyrDRhkvURAgbdzARrp2DWx6G3DgpNm5KTRqkNjDe9jJNYI6gH4/TaHOaDmkEbCnSTUqlSp90G7sIt34YI8OlKk7uoxH6CeNiQ3jH6XlhkGsQ/8wzz8iJJ56Y1m788ssvgo15PBTNQ1qya8a0m8p6hSQOBuR+cw4vVpC2lShRwjRln+gzvrtXX33Vl3GBrRPmHVLFYsWK2XIMEAEiQASIABEoqgiQ8SiqM18A48a9G9jUQX0JGy9sxGCQDUYiGv30009aDWv79u1So0YNrZ5T0Bs3MEFr164VuPA9/PDDdR8SMZaPNj6mBSOQ7JoJrjH+FDBR8GgGhgIqYZDQ+Hk389aobEP0Olc2IQLPcnABXaVKFb3W4ynvrY/vRIAIEAEiQATyFQEyHvk6sxwXESACRIAIEAEiQASIABHIIgTIeGTRZLArRIAIEAEiQASIABEgAkQgXxEg45GvM8txEQEiQASIABEgAkSACBCBLEKAjEcWTQa7QgSIABEgAkSACBABIkAE8hUBMh75OrMcFxEgAkSACBABIkAEiAARyCIEyHhk0WSwK0SACBABIkAEiAARIAJEIF8RIOORrzPLcREBIkAEiAARIAJEgAgQgSxCgIxHFk0Gu0IEiAARIAJEgAgQASJABPIVATIe+TqzHBcRIAJEgAgQASJABIgAEcgiBMh4ZNFksCtEgAgQASJABIgAESACRCBfESDjka8zy3ERASJABIgAESACRIAIEIEsQoCMRxZNBrtCBIgAESACRIAIEAEiQATyFQEyHvk6sxwXESACRIAIEAEiQASIABHIIgTIeGTRZGSiKx9//LH8/fffuupKlSrJoYcemolmcrrOPXv2yMqVKxMaQ/369aV48eIJlclE5lzueybwYJ1EgAgQASJABIhA9iJAxiN75yblnm3dulWaNGli60F4+vTp9p2BfxHYvHmzNGvWLCE43n33XalQoUJCZTKROZf7ngk8WCcRIAJEgAgQASKQvQiQ8cjeuUm5Z7NmzZIBAwaE1fPBBx9I+fLlw+KK+kuim/d9991XPvzwQ9l7770LHbpc7nuhg8cOEAEiQASIABEgAgWKABmPAoW7YBvr2bOnLFiwIKzRBx54QNq1axcWV9RfoIr2xRdfRIVh8eLFMmbMGJ3n6quvloEDB0bNX1CJudz3gsKI7RABIkAEiAARIALZgQAZj+yYh7T34rfffpPjjjtO19u+fXuZPXu2Dp933nly//33p729fK/w+uuvl5deekkPc968eVKrVq2cGXIu9z1nQGZHiQARIAJEgAgQgZgIkPGICVFuZnj99dcFJ/OgRx55RDMer732mn7//PPPpWTJkjoc9Ou5556TLVu2CAzSO3XqJN9++622D/noo4/khx9+kGrVqmm7iIsvvligeuQlGLW/9dZb8tlnn2lpQo0aNaROnTpa2nLYYYd5s9v3jRs3yptvviloB22irerVq+uNPsq3bt1a9tprL5u/IALoQ+PGjXVTYObmzp0btdlXX31V1q9fb/Mcf/zxcuKJJ9r3ggwk2vdk+oa18s0338QsCpuYyy+/PDBfsmsGFaa6XpcvXy5Lly6VTz/9VLZv3y5HHXWUHHvssXLuuefKIYccEthnJEDqBGYU6/brr7+WH3/8USpWrChVqlSRk046SU4//XT9HUWthIlEgAgQASJABIoAAmQ88nSSoQo0c+ZMPbr3339fXn75Zbn99tv1+1NPPSVNmzaNOvILLrhAe3qqWbOmPP7449K2bVv59ddfI8pcc801cuutt9r4v/76Sx566CF5+OGHbZwbAJMyduxYOfvss91oHZ4zZ47069cvIt6NQDmoPJUtW9aNzmj4iSeekBEjRug27rrrLunSpUvU9vr06SOvvPKKzYP3m2++2b4XZCDRvifTN+CBjXssOuKIIyJU/1AmlTVj2kxlvd59990yadIkU1XYE+v1wQcflBYtWoTFm5cdO3ZI586do6rqNW/eXDAPJCJABIgAESACRR0BMh55uAJwAtugQQPNKDRs2FCef/55fRJrNk9XXnmlZUKChm82cgcffLA+vf3kk0+0ZKNRo0baOH3t2rUCyYmX8XDVerBp69Chgz75/fLLLwXG7oYQRl0uucbw6CukJGgfJ8hQc9qwYYPOXq9ePQGTUhAUCoWkVatWtu14jPOzhfFIpu/JYDplyhRZt26db9FNmzbJkiVLdBqY2Pnz50fkS2XNmMqSXa9gOh599FFdDdYrVBEPOugggfTljTfeMNVrKZdRXbSRKnDddddpaQfioH4HCUm5cuUEHuXwzSxatEhOO+00mTx5MrKQiAARIAJEgAgUbQTU5oSUZwgoCUdInS7rHyV9sKNTKh867oQTTgj9888/Nt4vcP7559s6UNfw4cNDu3fvDsu6bNmykFIxsXHq1NuWQXm1+bJpCKxatcqmn3POOSF1B0VYulLNCo0fPz6kVF3C4vGCvEp1zJZ/7733IvJkIgLtGCxvuOGGuJro3bu3LYOySsITV7l0Z0qm7+nsA9aLu44U8xhRfaprxlTothPvev3+++/tPCmmIqQYaVOdfiophU3H2vOSkgDadJT/+eefvVlCSvUqpKSNEfGMIAJEgAgQASJQFBGQojjofB+zOsW1GyJ1Qm+HC+bBbKLVaayN9wu4G7mrrrrKL0tEnFtG2WpEpCNCqVLZPrh9883siVQubG1Zpf7lSc3M6y233GLbVCf3cTWSLYxHMn2Pa4BxZlIqeBY7pR7nWypda8atJ971CibXfA8I+9GZZ55p84CJcEnZINk0JflzkxgmAkSACBABIkAEfBCgqlUeCrzOOOMMrRoE1REYaZsbtqE60qNHDz3i/v37y7XXXhs4eqO6ggxQa4J6UzT6888/racnqEe5Nh5q3dmiuHgP6i0g2E1ceumlNs0NQF1MnUhrA/c//vhDJ+3cuVOgxgRSm3tRG2sdztSvn376SaCqBoJh9IoVKyyW0dqEOhYM4w1BxaigvWAl23fT51Sf06ZNkyFDhuhqoGoEGwqzDk3d6Vwzia5X9AG2STBKB8EwvGrVqjrs/kK/R44cqaOgUnbqqafaZNimHHPMMfY9nu/EZmaACBABIkAEiEARRICMR55NOrwpwSYBhPs6cG+HoV9++cUyELG8M7kbuTVr1kiJEiVMNb5Pt13fDD6RfrYmq1ev1jr3xnWtTzEdVRB3acyYMcPawig1K7nxxhuDupN18YXZd6XiJfB2BoIHM2zI/S6tTNeaQTuJrleUgbc2MMIg3OPiZYwQDw9lsGMCjRo1Si655BIdNr/69u0rL774onkVJUHRzAlsrODJDJ6tSESACBABIkAEiMC/CJDxyLOV4Hoxuuiii7SxrDtEbJ7hYhUE96FBrkLNRg4n/WZz5tbjDeOCve7du+toSFoqV67szRLxjjZgWGwInqCMRMPEuXVBCgJ3uyA/psWUSdezTZs22oAe9S1cuFC79U1X3Zmup7D6DhfMcHlsPKBFu/MkHWvG4JjoekW5U045RUvUoq1xeITDdwQCk4EflyCFA3M/depUN9qGIe0ZPXq0dpJgIxkgAkSACBABIlBEESDjkWcT757ixhoaVEjgCtSPzEYuyBORtwzUizp27Kijk5FGuBceopJhw4bpU+z999/fNgVPQU2aNNHvmWY84JEIHo5A8L7leuTSkVn8q7D6DpU4rL+VK1dqdKBuBwYoiFJdM269ia5XlDXMGZhb5fjArc6GwZybu0fgohpr2482b94sL7zwgmBM8GTlEr4hSPD23ntvN5phIkAEiAARIAJFDgEyHnk05bhTQHmsintE0e4XSHQj515Uh5vS77333rj7gYzuhYcDBgyQXr16RZRXxuXaPS8SMs14gPExp9iwSTFMVUSnsjCisPru3h3jdbPsB1Oqa8atM9H1irJYY+ZSTaj4lS5d2q1Sh6EmZu6WicVImcKQgoDRwH0zRvLjtQ8xefkkAkSACBABIlCkEPAxOGdUjiIwe/Zs62XnvvvuCymbDt8fJTWw+fxcgGL4xksQvPrES3ApCi9BqF+dfsdbTOdTxsi2T3Cr60fjxo2zedRFfn5Z0hLnuknFeIIwCmps0KBBIWBhfoI8JgWVTyU+1b4n27Y7f127do1wlRxUbyprxq0zmfWKNWS8WgV5LHM9cylphttkzPCECRNs/erSzpj5mYEIEAEiQASIQL4jQHe6eTTDykuV3ehE2yQNHTrU5lN2Fb4IJLORU16qbL3qhNe3XkTiDhHc6eES+mE2gX5MBe5cMJtU5PPL49aXSlhduGj7go1nolSY7nRT7XuiY0V+974QMJ3qxD/ualJZM24jyaxXZbdj5xkueL1322zbts2mY+2BqXNJebUKKSmjGxUWVkbntvzMmTPD0vhCBIgAESACRKAoIkBVqzyRb/3+++9Su3ZtPRqvG13vEF23urhZXF1w581ivQTFa+OBCnbt2iVNmza16iXdunUTdfot1apVE3UBoOAWa7ikffLJJ7W7X3g1MqTuSBBzszr6r5gjadmypZQpU0agYgX3vzBcNpRJVSsYE8OoGPTMM89o70Sm3XiehXlzeap9j2d8bh7YdTRr1sw6LIBamtqku1lsuFSpUhEG+qmsGVuxCiSjaqX+4ItiWPQN46gLHqvg7ACOEaB6ddNNN9kb62+77Tbritq0C29v6iJMgWohVPHgMvmAAw4Q2Hu888472g2vceSA29vxHZCIABEgAkSACBRlBMh45Mnsw6AVm3FQ27ZtRd1YHjgy6J3XrVtXpwcxKcls5FAhjHGh3482YpHLeCDvnXfeKZMnTw4sBmPvuXPn6vRMMR5wq3rWWWfpNuAKFt6sihUrFtgnv4TCYjzS0Xe/8USLA+MA17HxkJJUyYIFCyKyprJmTGXJrlcwmGCQo61X3GED98Rggl0yjIcb5xeOx97FrxzjiAARIAJEgAjkGwJkPPJkRnHHwMSJE/Vo4jGG7tKliyxfvlznV7YhUr9+/TAkzMk5TnHhEjURwikvmAj3fgO3PIzacVJs3JSaNEhtlD1EBNME5uiyyy7Tp9HmNF2pxsjgwYNN0bQ94RrV3H2CCwpxUWGihFNz9x4SvOP0PNOUjr4n2kf3bphYZaNJz5JdM6bNVNYrJHEwIDdSLlMnnvBiBWmb3z026DO+O9z14ce44CJNzDukiokyr24fGCYCRIAIEAEikC8IkPHIl5nMwnHg3g1s6jZs2KA3XtiIQd0EjEQ0wq3bkIZs375datSoodVzuHGLhlj+pCW7ZtKBAJgoSI3AUFSvXl1fBuh3qaC3LWUbote5sgkReJaDC2hcHIi1Hk95b318JwJEgAgQASKQrwiQ8cjXmeW4iAARIAJEgAgQASJABIhAFiFAxiOLJoNdIQJEgAgQASJABIgAESAC+YoAGY98nVmOiwgQASJABIgAESACRIAIZBECZDyyaDLYFSJABIgAESACRIAIEAEikK8IkPHI15nluIgAESACRIAIEAEiQASIQBYhQMYjiyaDXSECRIAIEAEiQASIABEgAvmKABmPfJ1ZjosIEAEiQASIABEgAkSACGQRAmQ8smgy2BUiQASIABEgAkSACBABIpCvCJDxyNeZ5biIABEgAkSACBABIkAEiEAWIUDGI4smg10hAkSACBABIkAEiAARIAL5igAZj3ydWY6LCBABIkAEiAARIAJEgAhkEQJkPLJoMtgVIkAEiAARIAJEgAgQASKQrwiQ8cjXmeW4iAARIAJEgAgQASJABIhAFiFAxiOLJiMTXfn444/l77//1lVXqlRJDj300Ew0k1d1rlmzRj799FPZuHGj/PXXX3L44YfLUUcdJQ0bNsyZcX777bfy66+/6v5Wq1ZNypQpkzN9Z0eJABEgAkSACBCB/ESAjEd+zqse1datW6VJkyZ2hAhPnz7dvjMQjgDwGjFihLz00kvhCf97A37Dhg2TmjVr+qZnQ+SHH34ojz76qLz22mu2O+PHj5ezzjrLvjNABIgAESACRIAIEIHCQICMR2GgXkBtzpo1SwYMGBDW2gcffCDly5cPi+OLyO7du6VTp07yySefWDgaNWokJUqUkFWrVlnpwcEHHyzz5s3LOgyXLl0q48aNkxUrVtj+mwAZD4MEn0SACBABIkAEiEBhIkDGozDRz3DbPXv2lAULFoS18sADD0i7du3C4vgiMnPmTBk4cKCG4ogjjpDJkydbtbQff/xRbrzxRlmyZIlOv/rqq23ebMAOzGTHjh3DurLvvvtaZomMRxg0fCECRIAIEAEiQAQKCQEyHoUEfKab/e233+S4447TzbRv315mz56tw+edd57cf//9mW4+5+q/7rrrtCQDHZ80aZK0aNEibAxff/21jYMkBNKkbKH3339fLrroIt0dPHv16iULFy6UUaNG6TgyHtkyU+wHESACRIAIEIGijQAZjzyd/9dff11wMg965JFHNONh9P4///xzKVmyZNSRP/fcc7JlyxaBQTpUkGCsDPuQjz76SH744QeBwXKzZs3k4osvFpyuewlG7W+99ZZ89tln8sUXX0iNGjWkTp06Wtpy2GGHebPbdxh0v/nmm7odtIm2qlevLrVq1dLlW7duLXvttZfNn64Axvjuu+/q6iDZwPhcCoVCegyIw3ihfhVEr776qqxfv94mH3/88XLiiSfa93QH1q5dKzNmzJCrrrrK9nvixIkFxnhgrXzzzTcxh1WhQgW5/PLLA/Mlu2ZQYarrdfny5QJ1NTgV2L59u3YmcOyxx8q5554rhxxySGCfkQDnDVC/w7oFgwoJWcWKFaVKlSpy0kknyemnn66/o6iVMJEIEAEiQASIQBFAgIxHnk4y1IagPgTCifjLL78st99+u35/6qmnpGnTpjoc9OuCCy6QlStXakPqxx9/XNq2bWtVd9wy11xzjdx66602Cl6gHnroIXn44YdtnBvApn3s2LFy9tlnu9E6PGfOHOnXr19EvBuBcmPGjJGyZcu60SmHMQZsXkHYRILRccmVINWrV0/Q1yDq06ePvPLKKzYZ7zfffLN9L4hAQTIeXbp0EWzcYxFU2LyqfyiTypoxbaayXu+++24t5TJ1uU+s1wcffNBKu9w0hHfs2CGdO3fWzLU3zbw3b95cnnjiCfPKJxEgAkSACBCBIosAGY88nHqcwDZo0EAzCnAB+/zzz+uTWKM+dOWVV1omJGj4ZiMHY2qc3sLoGpswqBnBOB2n7JCceBmP66+/3nqFQv4OHTrok98vv/wyTD0JqkqoyyXXGB59hZQE7eMEGZ6mNmzYoLPH2vi7dcYbnj9/vvTu3VtnhxQHakrFihWzxSdMmKAZHkSAScG4g6ioMR5TpkyRdevW+cKxadMmaxsDb2DA2UuprBlTV7LrFUwHvICBsF6hinjQQQcJpC9vvPGGqV7mzp1rVRdtpAq4KnpgViEhKVeunMBDGr6ZRYsWyWmnnaZthtxyDBMBIkAEiAARKJIIKBUSUp4hoCQcIXW6rH+U9MGOTql86LgTTjgh9M8//9h4v8D5559v60Bdw4cPDynPT2FZly1bFlLSARunTr1tGZRXmy+bhoBST7Lp55xzTmjPnj1h6Uo1K6TsEUJK1SUsHi/Iq1THbPn33nsvIk8qEcBDudK19QMjJVkJqdPuUMuWLW38hRdeGFLSj6hNKQbG5gd2SsITNX8mEpWUyvZBSV8y0UTMOrFe3HWkmMeIMqmuGVOh20686/X777+3GCl7qJBipE11+qmkFDYda89L6p4Um47yP//8szdLSKlehZS0MSKeEUSACBABIkAEiiICUhQHne9jVqe4dkOkPB7Z4YJ5MAyJOo218X4BdyOnbAf8skTEuWWUrUZEOiKUKpXtg9s338yeSHVHhS2LjXUmSJ102zYMVuap1MdC2GzGIjIe/yKkJEMWSzBxfpSuNePWE+96BZNr5hZhPzrzzDNtHjARLikbJJumJGBuEsNEgAgQASJABIiADwJUtcpDOdcZZ5yh1ZKgOgJj8OLFi+tRQnWkR48eOty/f3+59tprA0dvVFeQAfYMUG+KRn/++ae1i4B6lGvjodadLQoDbqi3gHBZ36WXXmrT3ADUxdSJtDZw/+OPP3TSzp07BWpMIKhF3XLLLTqcrl+LFy/WthgwaPcj4HnbbbfJJZdc4pds4+DeFobxhqBi5LUZMWmZehakjYffGKZNmyZDhgzRSVA1gqcwsw5N/nSumUTXK/rg2vXAMLxq1aqma/aJfo8cOVK/Q6Xs1FNPtWmwTTnmmGPsezzfic3MABEgAkSACBCBIogAGY88m3R4U2rVqpUeFe7rwL0dhn755RfLQMDVLvTWg8jdyK1Zs0ZfpBeUF/Fuu9HyuWl+tiarV6/WOvdBt4eb8um+SwMejYzHJTAYYIpOPvlkPW4wb3feeafA4xborrvuEhhUZzMVJuOh1OC0tzPgAw9m2JD7XVqZrjWDdhJdryjjejKD5zUvY4Q88FBm7Hlg9+NlOvv27SsvvvgismpSEhTNnMDGCp7M4NmKRASIABEgAkSACPyLABmPPFsJ8J6DTTMIdzrAWNYlXIRnTvSx2Q5yFWo2cnCBatzMuvV4w5AWdO/eXUdj4165cmVvloh3tAHDYkPwBGUkGibOrQtSELP592NaTJlknsDJ3FoOY3wY5bsECYY57Uaf3n77bSlTpoybJavChcV4wAUzXB4rlTSNh5+HMANUOtaMqSvR9Ypyp5xyipaoRVvj7h0pYDLw4xKkcGDup06d6kbbMKQ9o0eP1k4SbCQDRIAIEAEiQASKKAJkPPJs4t1T3FhDgwoJXIH6kdnIBXki8pZxb89ORhrhuqtF3cOGDdOn2Pvvv79tCp6CmjRpot/TyXjAaxbu2gBFkwRBPc1cxPjCCy9oz2G6UBb+KgzGAypxWH9wwwyCul2bNm0C0Ul1zbgVJ7peURZ9g2c2MJJB97K4kjC4qMba9qPNmzcL1gTGBE9WLuEbggRv7733dqMZJgJEgAgQASJQ9BDwsftgVI4ioCQZ1tjVGM1GeyoJReBIjbEujGvjIXiiMm3BgDxRUpcb2vLKvalvcbWps3mUupNvnmQi1aVxtl4YhgfRvffea/P5eWgKKlcY8YXh1WrAgAEWnyBjcheLVNeMW1ei6xVl4anKrNkgT2WK0bR54p1zdbdHSN2VE4KnK1O/upTS7S7DRIAIEAEiQASKJAL0apVH0+5uku67776Qsunw/VFSA7sh8nMBCkiS2ciZjRbqV6ffCSGrjJFtn+BW14/GjRtn86ST8XC9E2HcQaSM2W37Svc/KFto0KBBetMJPPAT5DEpsII0JBQ04+HOX9euXSNcJQcNKZU149aZzHrFGorFGLieucD4JkLq7hdbPxgREhEgAkSACBCBoo4AGY88WgHKS5Xd6ETbJA0dOtTmC7rjIZmNnHsPhvIAFIgs7szAnR4uoR9mE+jHVODOBbNJRT6/PG59iYTRH7duuNT10rZt28LyKFsGbxb7XtTc6eJOFTN3YDqV3YPFIlYglTXj1p3Mel24cKHtN1zweu+2wZybcWF9eF0pK69WIUg3gkgZndvyM2fODMrGeCJABIgAESACRQYB2njkiXbd77//LrVr19ajgc6660bXO0TXrS5uFlcX3HmzWC9B8dp4oIJdu3ZJ06ZNrWFxt27dRJ1+S7Vq1URdACi4xXrFihXy5JNPane/8GpkSN2RIOZmdfRfMUeiLu7TBtzq/g6BfQUMlw2l08YDdcKmxBgIw9gYHowwFng6gtH5HXfcoe0BkLdx48by7LPPIuhLhXFzOWwVYAhtCHYGCxYs0K8dO3aU+vXrmyTt9Qy3c6eDYNfRrFkz67AArpLVJt236lKlSkn16tXD0lJZM25Fydh4qL/yohgW61QAHqvg7ACOEeBd7aabbtLrFO3AjbJxRW3ahbc3dRGmtG/fXoAxXCYfcMABAnuPd955R7vhNY4clKqV/g5MWT6JABEgAkSACBRFBMh45MmsY6OJzTiobdu2om4sDxwZPA7VrVtXpwcxKcls5FAhjHHhftR4NQrshEpwGQ/kg8vayZMnI+hL8DxlXACnm/FQt2zLueeeazeavh1QkcALLlaDvIGhXGEwHq43s6C+m3jcsQGPTukgMA5wHRsPKemBZYbc/KmsGVNPsusVzBoY5GjrFXfYzJgxI8KLmWE8TB+CnvgecGcIiQgQASJABIhAUUeAjEeerACc0MOTEQinzjiBjUa4h2L58uU6Czw1uSfiiIQrXmzKcIoLl6iJEE55wUS49xu45Zs3b65PitGGS5DaKHuICKYJm/3LLrtMn0ab03SlGiODBw92i6ccxj0nuDDOvfvErRR9uOGGG6RixYpudEQYp+buPSR4x+l5JgnSGkht4iFsonFHSTrIvRsmVn3RpGfJrhnTZirrFZI45RAhTGJk6oUXK0jbSpQoYaLsE33GdwdG1I9xwUWamHdIFYsVK2bLMUAEiAARIAJEoKgiQMajqM58AYwb925gU7dhwwa98cJGDGpXYCSi0U8//aSlIcrrkdSoUUOr5xTkxg3qQ7i3A31Xev+6z+h36dKlo3WbaWlAINk1k4amBUwULhIEQwGVMEho/C4V9LaFNYK1omxCRNl8CFxA4+JArJl4ynvr4zsRIAJEgAgQgXxFgIxHvs4sx0UEiAARIAJEgAgQASJABLIIATIeWTQZ7AoRIAJEgAgQASJABIgAEchXBMh45OvMclxEgAgQASJABIgAESACRCCLECDjkUWTwa4QASJABIgAESACRIAIEIF8RYCMR77OLMdFBIgAESACRIAIEAEiQASyCAEyHlk0GewKESACRIAIEAEiQASIABHIVwTIeOTrzHJcRIAIEAEiQASIABEgAkQgixAg45FFk8GuEAEiQASIABEgAkSACBCBfEWAjEe+zizHRQSIABEgAkSACBABIkAEsggBMh5ZNBnsChEgAkSACBABIkAEiAARyFcEyHjk68xyXESACBABIkAEiAARIAJEIIsQIOORRZPBrhABIkAEiAARIAJEgAgQgXxFgIxHvs4sx0UEiAARIAJEgAgQASJABLIIATIeWTQZmejKxx9/LH///beuulKlSnLooYdmopm8qTMUCgkwW7dunaxfv14qVqwoxx13nBx77LFStmzZrB4n+vzZZ5/Jt99+Kz/++KNUrVpVDjvsMDnhhBNk3333zeq+s3NEgAgQASJABIhA/iNAxiOP53jr1q3SpEkTO0KEp0+fbt8ZCEfgu+++k0GDBsmSJUvCE/739sgjj8jZZ5/tm1aYkS+88IJMnjxZPvnkE99uVKhQQQYMGCAXXnihFCtWzDcPI4kAESACRIAIEAEikGkEyHhkGuFCrH/WrFl6w+l24YMPPpDy5cu7UQwrBH755Rdp0aKF/PDDDxaPevXqacnBxo0bbdzIkSOlc+fO9j0bAuedd14E0wEJx6+//hrWvdtuu0169OgRFscXIkAEiAARIAJEgAgUFAJkPAoK6UJop2fPnrJgwYKwlh944AFp165dWBxfRO655x6BRAN02mmnyf33328ZtDfffFP69OljN/KrVq3KKtUlw3hceeWVcv7550uNGjWkTJkympl69NFH7bgwtpdfflmOOeYYBElEgAgQASJABIgAEShQBMh4FCjcBdfYb7/9pm0T0GL79u1l9uzZunFsUrGpJoUjULduXctYLF++XA466KCwDE899ZQMHTpUx4FJgdpSttC8efPkpJNOEqhU+VH//v3t/N9xxx3SvXt3v2yMIwJEgAgQASJABIhARhEg45FReAuv8tdff12uvvpq3QGc5IPxeO211/T7559/LiVLlozaueeee062bNkiMEjv1KmTNliGfchHH32k1ZGqVasmzZo1k4svvtj39B8G2m+99ZY2dv7iiy/0KXydOnW0tAUGz0EEtSZIGNAOjKSh+lS9enWpVauWoHzr1q1lr732CiqeVDzaaNy4sS4LdatJkyZF1OMycsj77LPPRuQxEa+++qo2TDfvxx9/vJx44onmtcCf7lro0KGDjB07Nq19wFr55ptvYtYJxujyyy8PzJfsmkGFqa5XMJtLly6VTz/9VLZv3y5HHXWUdihw7rnnyiGHHBLYZyTAeQOYP6zbr7/+WqvnwSlBlSpVNEN4+umn6+8oaiVMJAJEgAgQASJQBBAg45Gnkzxw4ECZOXOmHt3777+vVWxuv/12/Y7T+6ZNm0Yd+QUXXCArV66UmjVryuOPPy5t27a1EgG34DXXXCO33nqrjfrrr7/koYcekocfftjGuQHYHmDj62ekPWfOHOnXr5+bPSKMcmPGjEmrhykwOUaCccUVV8iwYcMi2kUEGA5jAwKPV0EEtaxXXnnFJuP95ptvtu8FHQDD2atXL91stPEl268uXboINu6x6IgjjohQ/UOZVNaMaTOV9Xr33Xf7MpuoG+v1wQcf1PY/pi33uWPHDm3zA+Y6iJo3by5PPPFEUDLjiQARIAJEgAgUGQTIeOThVOMEtkGDBppRaNiwoTz//PP6JBan+SDYAhgmJGj4ZiN38MEHa5ey8JiETVijRo207cPatWsFkhMv43H99dfLSy+9pKtFfpyw4+T3yy+/FBi7G0IYdbnkGsOjr7BVQPtwDYs6N2zYoLPD6BtMSroIJ+1QRwNF25i7jAfwgB2FH2Ub44GNNWw9QJmw8ZkyZYp2P+yHxaZNm6yXMDCx8+fPj8iWypoxlSW7Xl1ssF6higg1O6yJN954w1Qvc+fOtaqLNlIFrrvuOi3tQBykcpCQlCtXTuBRDmtk0aJF2mYIXsdIRIAIEAEiQASKPALq3gJSniGgJBwhdbqsf5T0wY5OqXzoOHWvQ+iff/6x8X4BZaRs60Bdw4cPD+3evTss67Jly0JKxcTGqVNvWwbl1ebLpiGgjLJt+jnnnBPas2dPWLpSzQqNHz8+pFRdwuLxgrxKdcyWf++99yLyJBuB9gxeV111lW81ykOUzYO8SrXINx8ie/fuHZZXSXgC82Y6QTFtIXUPie2Pchmc6SZt/Vgv7jpSzKNNM4FU14ypx20n3vX6/fffW1yAkWKkTXX6qaQUNh1rz0vumkD5n3/+2ZslpFSvQsqgPyKeEUSACBABIkAEiiICUhQHne9jVqe4dsOk3Ofa4YJ5MBtsdRpr4/0C7kYuaDPuLeeWUbYa3mT9rlSpbB/cvvlm9kR++OGHtqxS//KkJv8KJszggue2bdsiKps6dWpYHjBRQZRNjIeLNzbSBUlKBc9iptTjfJtO15px64l3vYLJNfOOsB+deeaZNg+YCJeUDZJNU5I/N4lhIkAEiAARIAJEwAcBqlrloczrjDPO0GpJUB2B/ULx4sX1KKE6Yu5xgKeja6+9NnD0RnUFGaDWBPWmaPTnn39qVRPkgXqUa+Oh1p0t+u677wrUW0AjRoyQSy+91Ka5AaiLqRNpbeD+xx9/6KSdO3dqt7Z4UZt7ueWWW9wiKYVdlRvo5N93331aZQaVet3pIu7pp5/WhsMIewl3pcAw3hBUjKCGU9DkeuI6+eSTBe9mLWS6L9OmTZMhQ4boZuCeGAb73rbTuWYSXa/oGGyTYJQOwhzjpncvod+4uwUElbJTTz3VZoFtiuuaOJ7vxBZmgAgQASJABIhAEUSAjEeeTTqMnlu1aqVHhfs6oNNvCJfkGQZCqYZovXWT5n26G7k1a9ZIiRIlvFnC3t12wxKivPjZmqxevVrbIxg7kaDi8NgFA/p00U8//aS9dLmX7gGjXbt2iblAEIycSYetAhiKbCXXoBzepGCjEMs7U7rGotTgtLcz1AcPZtiQ+11ama41g3YSXa8oA29tYIRBMA73MkaIh4cy2DGBRo0aJZdccokOm199+/aVF1980byKkqBo5gQ2VvBkBvsmEhEgAkSACBABIvAvAmQ88mwlwHsOJAmgiy66SBvLukO88cYbrWcmuA8N2oyajRw2rWZz5tbjDS9evNjeD4ENeuXKlb1ZIt7RBgyLDcETFAyzXXLrghTEMAF+TItbLpkw6oYkCF7AvIT24ILYGGkrtS8rEfHmLez3d955x26Qgd8LL7xQYEwSXDDD5bFh0OBmNkjak441Y7BOdL2i3CmnnKIlatHWONYCviMQmAz8uAQpHJh7pYrnRtswpD2jR4/WUkAbyQARIAJEgAgQgSKKABmPPJt49xQ31tCgQtK5c2ffbGYjF+SJyFsI6kUdO3bU0clII9x7MlAJXNqiD/vvv79tCp6CmjRpot8zwXigYjA3UE+D1y4wIkcffbRuE+pjcPVrvGlFc6drO1wIAXhSgmcmQ37ew0xaup9QicP6gxtmENTt2rRpE9hMqmvGrTjR9Yqy6Bs8s4E5w230fgTm3Nw9Agkb1rYfbd68WTN4GBM8WbmEbwgSvL333tuNZpgIEAEiQASIQJFDgIxHHk057hRQHqviHlG0+wUS3ci5l/DBNe29994bdz+Q0b3kbsCAAfbeCbcSSBngnheUKcbDbc8NKw9NWnUGJ/nxMmNu+YIIr1u3TrsFNtKGJ598UnB5XUGRe3eM182yXx9SXTNunYmuV5TF3SbmUk2o+JUuXdqtUofBaJq7ZWIxUqYwpCBgNHDfjJkLr32IycsnESACRIAIEIEihYCPwTmjchQBdTu59bKjjKNDyqbD90dJDWw+PxegGL7xEgSvPvESXIrCSxDqV6ff8RbT+ZQxsu0T3Or60bhx42yeu+66yy9LxuKUupJtW6lbRW1n0KBB2oUt8MBPkMekqJUkmKikMyG4STZemvxc1yZYZULZ3fnr2rVrhKvkoMpSWTNuncmsV6whg9eSJUvc6mzY9cylpBk2Pp7AhAkTbP3KsD+eIsxDBIgAESACRCCvEaA73TyaXuWlym50om2Shg4davMpuwpfBJLZyCnbEluvOuH1rReRcF/rdUeLfphNoB9TgTsXzCYV+fzyBDYYZ0LQ3SafffZZ2KZenWhHrbGg3ekqu4qQuaMF2Cj1qqj9S3ci7lQxcwemMxY+bvuprBm3nmTW68KFC22/4YLXO/9wq2zGhbWnpBdukyHl1SqkpIxhce6LMjq35WfOnOkmMUwEiAARIAJEoEgiQFWrPJFv/f7771K7dm09Guisu250vUN03epCdUldcOfNYr0EJaJWBA9QTZs2teol3bp1E3X6LdWqVRN1AaDgFusVK1YIVIBwC7lrJ6HuSBBzszr6r5gjadmypb4dHCpWMPqG4bKhTKhanXXWWdojEdwRw+ge7nzRNoyDDcXTbkHfXG5sFdBHGErfcMMNprsRT3iXgrezdBHsOpo1a2YdFsAtsdqk+1ZfqlQpqV69elhaKmvGrSgZVSv1F18Uw6JvGEdd8FgFZwdwjADVq5tuukmvU6Tddttt1hU13kHw9qYuwtTqbbBvghH9AQccILD3gIE/bKigTgZSEhX9HegX/iICRIAIEAEiUEQRIOORJxMPg1ZsikFt27YVdWN54Migd163bl2dHsSkJLORQ4UwxoV+v9FtD+yESnAZD+S78847ZfLkyQj6Eoym4RYWFA8D4FtJlMjGjRvbjaJfNhjiw+g9lmvhgmY8jjzySL/u+sYlwkj6VuCJBOMA17HxkJIeyIIFCyKyprJmTGXJrld4rQKDHG29wgX1jBkzNBNs2sPTMB5unF84HnsXv3KMIwJEgAgQASKQbwiQ8ciTGcUdAxMnTtSjwamz8TAVNLwuXbrI8uXLdbKyDZH69euHZYULUWzKcIoLl6iJEE55wUS49xu45WHUjpNi46bUpEFqo+whIpgmMEeXXXaZPo02p+lKNUYGDx5siqblCakKsPAS7qLAxYvGu5E33fuOU3P3HhK84/Q8U5QI45HMfEbrt3s3TLR8SIvG9CS7ZkybqaxXSOJgQO7nRhlerLAu/JhN9BnfHe768GNc4AkN8w6pYrFixUxX+SQCRIAIEAEiUGQRIONRZKc+8wOHa1ps6qBWhY0XNmJQuwIjEY1wmR+kIdu3b5caNWpo9ZyC2rhhI422lX6/7ifU18qVKxetu0xLIwLJrpl0dAFzj4sEwVBAJQwSGr9LBb1tKdsQvc6xZuBZDi6gcXEg1no85b318Z0IEAEiQASIQL4iQMYjX2eW4yICRIAIEAEiQASIABEgAlmEABmPLJoMdoUIEAEiQASIABEgAkSACOQrAmQ88nVmOS4iQASIABEgAkSACBABIpBFCJDxyKLJYFeIABEgAkSACBABIkAEiEC+IkDGI19nluMiAkSACBABIkAEiAARIAJZhAAZjyyaDHaFCBABIkAEiAARIAJEgAjkKwJkPPJ1ZjkuIkAEiAARIAJEgAgQASKQRQiQ8ciiyWBXiAARIAJEgAgQASJABIhAviJAxiNfZ5bjIgJEgAgQASJABIgAESACWYQAGY8smgx2hQgQASJABIgAESACRIAI5CsCZDzydWY5LiJABIgAESACRIAIEAEikEUIkPHIoslgV4gAESACRIAIEAEiQASIQL4iQMYjX2eW4yICRIAIEAEiQASIABEgAlmEABmPLJqMTHTl448/lr///ltXXalSJTn00EMz0Uxe1vntt9/Kr7/+qsdWrVo1KVOmTFzj3L17t6xevVo+++wzKV26tDRo0ECOPPJIKVasWFzlsyXTjz/+KOvXr9fd2WuvvfQ48CQRASJABIgAESACRCAZBMh4JINajpTZunWrNGnSxPYW4enTp9t3BvwR+PDDD+XRRx+V1157zWYYP368nHXWWfY9KPDss8/KoEGDIpIPPvhgmTFjhlSvXj0iLVsjevXqFYbB559/LiVLlszW7rJfRIAIEAEiQASIQJYjQMYjyycole7NmjVLBgwYEFbFBx98IOXLlw+L48u/CCxdulTGjRsnK1asiIAkHsbjqaeekqFDh0aUNREVKlTQzEfNmjVNVNY+58+fL7179w7rHxmPMDj4QgSIABEgAkSACCSIABmPBAHLpew9e/aUBQsWhHX5gQcekHbt2oXF8UUEDFnHjh3DoNh3332tqlUsxuO7776Tpk2b2vITJ06U008/Xf744w+5++67ZerUqTrt5JNP1syHzZiFgV27dskZZ5whP/zwQ1jvyHiEwcEXIkAEiAARIAJEIEEEyHgkCFiuZP/tt9/kuOOO091t3769zJ49W4fPO+88uf/++3NlGAXWz/fff18uuugi3R6eUDNauHChjBo1SsfFYjygmgUGAzR48GC56qqrdBi/YCdSt25d+75o0SI57LDD7Hu2Be644w6tktewYUOBvQoYDhAZj2ybKfaHCBABIkAEiEBuIUDGI7fmK+7evv7663L11Vfr/I888ohmPIzNQjwbyOeee062bNkiMEjv1KmTwNAa9iEfffSRPgmHsXWzZs3k4osvFkgGvASj9rfeeksbWH/xxRdSo0YNqVOnjpa2RNt0b9y4Ud58803dDtrEqTvsImrVqqXLt27dWjJh4Lx27VotiQDDgLGBILWIh/EIhULSokULQd9BYGIOOOAAHcav//znP/Lwww/b9xtvvFFuuOEG++4Gdu7cKbATcQmSq+LFi7tRGQu7DNjcuXM1E/XJJ5/o9uJZN4l27J9//pGHHnpIgGEsgpF+8+bNfbOBQfrvf/+rjfph2I96wew1atRIzj333KhrBs4XwDiiD2C2ILmCnQ/mAWv3r7/+0owi6sH6884Fyr/44ouycuVK3f6ePXukdu3a+ueCCy7QDgZ8O/2/yE2bNsnTTz8tX375pSAMO5qDDjpIoJLXsmVLqV+/fkSb0epjGhEgAkSACBCBbEWAjEe2zkyK/Ro4cKDMnDlT14LN5Msvvyy33367foctgqsW5NcUNkzYSGHz8/jjj0vbtm2t2pGb/5prrpFbb73VRmGTho2ku9G2iSoAJmXs2LFy9tlnu9E6PGfOHOnXr19EvBuBcmPGjJGyZcu60RkJx8t4uEb89erVE4zD0Jo1a+Scc84xr/oZTd0Km/s2bdqE5cfGP16PWmEFE3z5888/dV83bNggl112mdx5550CCVkmGQ9s2uO1eenWrZsMGTIkYlRgNMDIod9+BLUxrLkg2yZXOnjllVfKiSeeKFjXfvTEE0+EMT/bt2/XaxZMth+BYca3AK9mfhTLLghlnn/+ec0Q+ZVnHBEgAkSACBCBXEKAjEcuzVacfcVmDqfDUPHBCS42Ll9//bU+lUcV2FwZJiSoSsN4wBtTxYoV9eYTTANOkLGBg4QAm2Qv43H99dfLSy+9pKtF/g4dOkiVKlX0aS6M3Q0hjLpcco3hIUGAlATtw60r6jQbS+/m3q0jneF4GQ9sfI3dzBVXXCHDhg3T3cA8XHLJJVoCgj6DkQMdccQREbY3OkH9KkzGAwzjfffdp5nDJUuWaKlNphkPSCbA4AArP4KNEiRvIL91C5fFYIoNwXMbGDtIHSDhA54gSOeMnY3Ja54u44F8kHbg28Haw3cESQgkeOiHy3gg/vzzz7eMGSR5Z555ppQoUUJL7QzDBqcCwBOulV3yzjXWyrHHHqvtgvC9vvLKK1riB+nj8ccf7xZlmAgQASJABIhAbiKg/nmS8gwBJeEIqc2t/lGbSTs6Zeys40444YSQ2vDZeL+A2lDZOlDX8OHDQ0qdJSzrsmXLQvPmzbNxy5cvt2VQXkkCbBoCq1atsulKChBSm8OwdHVqHFK2FCF1ihwWjxfkVapjtvx7770XkSfdEUrSY9tTm8DA6tWm0uZTalU2n3Kfa+PVBjkE3M282EyeAPKZPOapNsGeXOl/XbdunW33mWeesQ0ohsrGK0N5G18Qga+++iqk7JR0+3gqxjOsWazhzp072/4pCV9YupLghPr27WvTg+YQ+BqszVOpWYXVhfUHXDA/hpQNkC134YUXhhSDbJJCaPu6666z6YphsWkmoBw92HSsey8p6WFIMdwhxfB4k/hOBIgAESACRCAnEcBpHinPEFBGznZDo7w12dGBeTAbK3Uaa+P9Ai7joewe/LJExLlllL1DRDoilCqV7YPbN9/Mnkh1Em3LginINMXLeCjD/Yh+gekym2bDjIDZMvirU3bf7hcG46GkDSFlq6P7hjl0GcLCYjzADCjpgcXrjTfeiMALcQZP5cY4Ih0Rym7C5unatatvHi/jMWnSJN983kjUZ9oHs+8lrAGTDqbTS8oJgU2P9T16y/KdCBABIkAEiEAuIkBVq9wUVEXtNXTa1emwVpmBMbgxhlUbNenRo4cu279/f7n22msD6zGqVsgAmwWoCkUj2AdAnx0EFRXXxkN9GLbou+++a70/jRgxQi699FKb5gagevP9999r9Ra4pAXB8LpPnz46jDsmbrnlFh3O1K94Va2mTZtmbQ/uuusu6dKlixiVM6jfQGWmVKlS2msW7G1A77zzjlZh8/b9l19+EcyTIRjSw0bEzKGJT+cTtkCwCQLB+xmMmQ1lWtXKtOM+sV5gs2FU9m6++WY7724+oxqGOHgSc9WRzJrDE+Vh+A/VPyV1c6vQYVfVCnkwN161qIhCfmaLMQAAMmBJREFUKqJx48ZaFQrrXUn//LLo783MJ1SvXFsd3Blz77336nJw5QwVPTfdt0JGEgEiQASIABHIYQTIeOTw5Pl1ff369dKqVSudBLsD3NthCJtaw0DA1S68FgWRy3jAQBp669HIbTdaPjfNT2cf9hLwMGQ2nW5+NwyPXWaz7ManMxwv4wGPRkqlRzcNQ3swYBgbSKnnaGNlhHHzObwkgaDfnw23gG/btk3f2aFO/UWpLcnIkSN1/8yvwmA8JkyYoB0IoA9wJgAmtlixYqZL9glHBK4hv02IEgDj53ocQ1aX8Yhm+O9W6zLap512mkyePNlNtmEw17ALAb366qty1FFH2TQ/xwOwbYJxO75TJSWJ+d3ZyhggAkSACBABIpADCJDxyIFJSqSL2ORgswPCfRTYOLoEV67mYjjc1H3IIYe4yTZsGA8YxkJKEYsWL14s3bt319lwaly5cuVYRQRtQDJgCJIBI9EwcW5dkIIYl7V+TIspk65nvIyHsm3RUg60C2mHMYhGGBIQQ+aEPOjk3eQryKfZvKNPmMMDDzwwrPmCZjzgSlmpMOk+KDUlzRyjb35k1ijSIFmKRyoEQ+1ojAe+GXhNi0Vw9XzqqafqbHCgAK9ZfoT7X0waJGOnnHJKWDbcFYP2DEPqJmLccAIBd9YkIkAEiAARIAL5gAAZj3yYRWcM2KTEwyigCE63ccrtR2ZTB1en8+fP98sSFufe/J2MNMI9dUbFUDtBH/bff3/bjuu2NpsYD7+TazBsuEulXLlyuv/w3mROu+PF1A48gwGjlocm0GcvGSbVTce9IuaOGG/+VN7BVBq3zdh0Q5KEO1yCCO514S0KBE9UBuug/EHx7tqLd11B7c94ZYP7Y1e10G0HXsKgEgYKcosLhhprBS55DdPq1vHggw/qu0jcOIaJABEgAkSACOQiAmQ8cnHWAvq8Y8cOrZ4RkBwRjcvYjBqINzFRxgMbVJzog3BTutFd99Yb9O5eeDhgwAB9c7g3LzaXOF0GxbtB9NaRyHu8Eg937KZ+703nruvUaKo5pnxBPV3GI942M2Ffg80/1o05+VcG3tb9c1C/XDUmrJ+guzKCypv4ZBgPlDXtGZfVpj736d6nA8kYLgaMRmBQwcRD3QxMCCha/dHqYhoRIAJEgAgQgWxDgIxHts1ICv1xL+CDcS5Opv0Ity+buxFwt8R+++0XkS1RxgMV4KZo2ArA2HbRokUJ2TDgVvQ77rhD9yPogkPcwH7PPffoPNnEeKBDrkoS8MXG0SVXBQ7jNGppbh6EcXs1sDcEo3S/OyBMeqpPGJPj9D6IwEAZqQfsV2CXAuNzc9ofVC6ReK8xeSzHB6Zu16h/9OjRojxzmaSEnskyHq7Njp/EBZIMqGOZbw1MVTzqYOg87LFwJwm+J0h//IziExokMxMBIkAEiAARyAYE1D99Up4goLxUWfec0VzVwvWocfMZdLeBcY0Ll6bxkjqBtvVOmTIlsBjuX8CdHi6hH6ZPyi7CTdJh5eHKuqdFPr88EYVSjIjXnS6aUYyT7f9NN90U1vKuXbtC5g4V9B1jCaLCcKcb1BfEF4Q7XcWkWezUhZQhtWGP1iWb9t1339lycFerNus2zRtQ0sCQssvwRut3151uIutKMTu2fSUdi6hbSSxsup9LarjbxbfgR8CgZcuWuryfK16/MowjAkSACBABIpDtCFDikQ3cXxr68Pvvv0vt2rV1TTghdd3oequHe0/jVjfIMDYZiYfaYEvTpk31KS3ahA4+DIWrVaumb5LetGmTrFixQp588knt7heesAy5N6uj/4o5ErXx0u5FcZqMU3BzcowymZB4QB3KuLtFG5DaGHUXuDt13czCc5irNoPb1V13rvByhRN4qL+pezysi1x4aYLkJohclSyTx+uG1cQXxNOV5GTCE5d76zvGoy7uk7Jly/oODUbhLubI9NhjjwmkHSAYmGPdYB5g7wF3zOpiRO0iGEblQZKmZCUeqP+kk07SbeMXbmCHJzlzczlU0gz5uaRWFwyKYjTlsssu02plVatW1bekQwo5a9Ys/YPyuNF81KhRpio+iQARIAJEgAjkLAJkPHJ26sI7jk0yNuMgGOgag9bwXP++QX0DalGgICYlGcYD9cFTljq1tswH4oLIZTyQBxu3ILekSMcm2LgAzgTj4apDob1o5OehyPXs5VcWbnZRzus5ys1b1BgPlwl2cfALg5EdMmRIWBLc2sIz17x588Li/V7SzXigjalTp2pHCH7tmbgrrrjCNw8Yj1j9xvcJ19JgqkhEgAgQASJABHIdATIeuT6D/+s/TkRhDA1SN5cLTuijEVy9wtgV5L00DnFwK4rTf2yWY22OkN8l2ASAiYBXIj+CUTsuxUMbLkFqA5sCL9OEzRdOheF6F/ePgJTqir40zi2fajieTaRpY8aMGYI7H7wETOECFRc4uoT7GWBwX758eTc6Irx27Vp9d4WbUJgSD8OAoj/x3Ofi9juesMswx8ofjdnEGoWxuSsVM/XB5gjMONa8n5es3bt3S506dXT2ZNYV5twrkUNlWLdwp+za7Jg+4YnvDowoJHp+BGN72GodfvjhfsmMIwJEgAgQASKQcwiQ8ci5KcudDsO4FupV2ITjAjhsAKF2hQ1ZNPrpp58E0pDt27dLjRo19GbR7wK5aHUUdhpUrKAyA5UfqMDts88+hd2lItG+WTu4GLFSpUpaNatKlSqCG+AzTVC9ggE5pDBHH320viMnnnahoojvBOX37Nljv5NYTGqmx8P6iQARIAJEgAikGwEyHulGlPURASJABIgAESACRIAIEAEiEIEAGY8ISBhBBIgAESACRIAIEAEiQASIQLoRIOORbkRZHxEgAkSACBABIkAEiAARIAIRCJDxiICEEUSACBABIkAEiAARIAJEgAikGwEyHulGlPURASJABIgAESACRIAIEAEiEIEAGY8ISBhBBIgAESACRIAIEAEiQASIQLoRIOORbkRZHxEgAkSACBABIkAEiAARIAIRCJDxiICEEUSACBABIkAEiAARIAJEgAikGwEyHulGlPURASJABIgAESACRIAIEAEiEIEAGY8ISBhBBIgAESACRIAIEAEiQASIQLoRIOORbkRZHxEgAkSACBABIkAEiAARIAIRCJDxiICEEUSACBABIkAEiAARIAJEgAikGwEyHulGlPURASJABIgAESACRIAIEAEiEIEAGY8ISPIr4uOPP5a///5bD6pSpUpy6KGH5tcAMziab7/9Vn799VfdQrVq1aRMmTJxtxYKhWT9+vUa+7322ktq1KghxYoVi7t8QWbcsmWLbN68OWaTRx55pJQvXz5mPmYgAkSACBABIkAEiIAfAmQ8/FDJk7itW7dKkyZN7GgQnj59un1nwB+BDz/8UB599FF57bXXbIbx48fLWWedZd+DAmDy5s+fLw8//LB8/vnnNts777wjFStWtO/ZFEBf//Of/8Ts0gMPPCDt2rWLmY8ZiAARIAJEgAgQASLghwAZDz9U8iRu1qxZMmDAgLDRfPDBBzy1DkPk/78sXbpUxo0bJytWrPj/kf8LxWI8/vzzT5k7d65mODZu3BhRnoxHBCSMIAJEgAgQASJABIoYAmQ88njCe/bsKQsWLAgbIU+tw+CwL2DIOnbsaN8R2Hfffa2qVSzGAxKSu+++O6y8+5IrjMeUKVMEKnl+BHWz/fbbzy+JcUSACBABIkAEiAARiIkAGY+YEOVmht9++02OO+443fn27dvL7Nmzdfi8886T+++/PzcHlcFev//++3LRRRfpFvDs1auXLFy4UEaNGqXjYjEeSB87dqxmVsDwXXHFFdK/f3954403dPlcYTyWL18uBx10UAaRZtVEgAgQASJABIhAUUWAjEeezvzrr78uV199tR7dI488ohkPY7MA24OSJUtGHflzzz0nMDrG6XenTp0EhtawD/noo4/khx9+EJx+N2vWTC6++GK92fZWBqP2t956Sz777DP54osvtHF1nTp1tI3AYYcd5s1u36Gm9Oabb+p20Cbaql69utSqVUtQvnXr1gJj7XTT2rVrZcaMGXLVVVfpsaH+iRMnxs14zJkzR77//nvp3LmzlQr06NEjYcZj586d8uyzz4YND4xM8eLFw+LS+eLaeBQ04/HPP//IQw89JDDGj0UNGjSQ5s2b+2bbvXu3/Pe//5XVq1frH9Rbt25dadSokZx77rlR1wzsciCxQh8aNmwoTZs2Fdj5YB6wdv/66y/BmkU9WH/euUD5F198UVauXKnb3rNnj9SuXVv/XHDBBVK6dGnfPpvITZs2ydNPPy1ffvmlIIxvE8xfzZo1pWXLllK/fv2INk1ZPokAESACRIAI5BICZDxyabYS6OvAgQNl5syZugRO819++WW5/fbb9ftTTz2lN1fRqsOGCRspbH4ef/xxadu2rVU7cstdc801cuutt9oobNKwkcRm1o+gvgTJwNlnnx2RjM17v379IuLdCJQbM2aMlC1b1o3OSDgRxsOvA8kwHmAK27RpE1bdJ598kpBHrbDCcbwUJuOBTTvWWDzUrVs3GTJkSERWMBs33HCDbNiwISINEWeccYZec0EeuVzp4JVXXiknnniiYF370RNPPBHG/Gzfvl2vWTDZfgSGGfjCI5gf4VscOnSoX5KNe/755zVDZCMYIAJEgAgQASKQowiQ8cjRiYvWbWzmcDoMV7A4wcXG5euvv5YWLVroYthcGSYkqB7DeBx88MHaGxM2v2AacIKMDRwkBNgkexmP66+/Xl566SVdLfJ36NBBqlSpok9zYexuCGHU5ZJrDI++wgUt2v/xxx91nWZjWa9ePQGTkmkqiowHmB54QwOBITjqqKO0lCrI7iPVOYBk4s4777Qun731wUYJkjeQ37qFRA1MsSF4bjv55JMFUgdI+IxnMUjnpk6darKFPV3GA/kg7cC3g7WH7wiSEEjw0A+X8UD8+eefL/g2QJCKnHnmmVKiRAkttTPxFSpUkCVLlkRIPrxM5iWXXCLHHnus/PHHH/p7feWVV7TED9LH448/PqzPfCECRIAIEAEikJMIqH+epDxDQEk4QkcccYT+UdIHO7rTTz9dx51wwgkhteGz8X4BtaGydaCu4cOHh5Q6S1jWZcuWhebNm2fjlJqOLYPyagNr0xBYtWqVTT/nnHNCanMYlq5OjUPKViKkTpHD4vGCvEp1zJZ/7733IvKkO0JJemx7ahOYcPVqo2zLKzWsuMqrjbQtY+ZQbYLjKptsJqwR05bfU9kKhRRTmGz1SZf76quvQmgbfcJTMZ5hdWENK9U223cl4QtLV57GQn379rXpQXMIfL3jVmpWYXVh/T3zzDMhzI8hZQNky1144YUhxSCbpBDavu6662y6YlhsmgkoRw82HeveS0p6GFJMfEgxPN4kvhMBIkAEiAARyEkEcJpHyjMElHclu6FR3prs6MA8mA2WOo218X4Bl/FQdg9+WSLi3DLKViMiHRFKlcr2we2bb2ZPpDqJtmXBFGSaihrjAYb00ksvDSm1pRA20matmCc2wQVFYAaU9MD2QRnpRzSNONM3pa4UkY4IZTdh83Tt2tU3j5fxmDRpkm8+byTqM+2D2fcSGG+TDmy9NHjwYJse63v0luU7ESACRIAIEIFcRICqVjkpp4reaei0q9NhrRoFY3BjDAsPS7A7AMHj0rXXXhtYkVG1QgaoNUG9KRrhHgvos4OgouLaeKgPwxZ99913rdvZESNGiNro2jQ3AHUxGGtDvQWqJyAYXvfp00eHe/fuLbfccosOZ+pXYaha/fLLL9YgHeOCIb2SDtk5zMRYlfRIYwwVJbNW0M62bdvkrrvuClOdgy1DuXLlMtENWyfWC2w2jMrezTffbOfdZlIB2BLdd999Okpt4sPUkcyawxPl4bQAqn9K6uZWocOuqhXywANZLINwFGzcuLFWhcJ6V9K/iHoR4dr5QPWqTJkyNh/ujLn33nv1O1w5Dxs2LCzdZmSACBABIkAEiECeIEDGI08m0gxj/fr10qpVK/2KW6Zxb4chbGoNAwFXu7jwLohcxmPNmjVabz0oL+LddqPlc9P8dPZhKAwPQ2bT6eZ3w/DYBQP6TFJhMB6ZHE8ydcNWAi6Yja1EQdwDM2HCBO1AAP2FMwEwscWKFYvoPhwRJGrrA0cLBxxwQFhdLuMB5gvezWKRy2ifdtppMnnyZN8iYK5hFwJ69dVXtc2MyYjvCkylS7BtgnE7vlMlJYn53bllGSYCRIAIEAEikO0IkPHI9hlKsH/Y5GCzA8J9FNg0unTjjTfqU1rE4abuQw45xE22YcN4wDAWUopYtHjxYunevbvOhlPjypUrxyoiaAPG6IZgTGskGibOrQtSEHMruB/TYsqk60nG418kXW9jymZC8JMpgitlpcKkq1dqSpo5xhrwI7NGkQbDblda45cfcTDUjsZ44JuB17RYBFfPp556qs4GBwrw1OZH5n4XpE2bNk1OOeWUsGy4KwbtwW2vlzBuOIGAO2sSESACRIAIEIF8QICMRz7MojMGbFLiYRRQZOTIkfreCae4DZpNHTwbzZ8/38YHBdybv5ORRrinzmgDaifow/7772+bhLcleC0CkfGwsGQ8AHU9ZfOh24EHKag4ZYLAVBq3zdh0424M3OESRHCvC29RIHiiSlYFzF178a4rqP0Zr2zwBOaqFrr9hSqYwSvILS4Yaty7AzU214uXqefBBx/Ud4iYdz6JABEgAkSACOQqAmQ8cnXmfPq9Y8cOrZ7hk+QbhcvYjBqIN0OijAcu+oPOOwg3pRvddW+9Qe/uhYcDBgzQN4d782JzidNlULwbRG8dibxT4vEvWpCMXX755foFtgjKeUEiMMaVF5t/rBtz8q8MvK3756AKXDUmrJ+guzKCypv4ZBgPlDXtGZfVpj736d6nE8/ljHAvDCYe6mZgQkDR6nfbYpgIEAEiQASIQNYjoIwvSXmCwOzZs62XHHXSGlI2Hb4/Smpg8/3888++ozcequBZKF4yrk9RvzIIj7eYzqfUUGyf4FbXj5Qxrs2jjJ79sqQ1rjC8Wq1bt067jgWW+IE3JLUxTuu4Eq3Mdfs6ZcqURIvHzA+3uK7rWSU9iFkGGdTle3Y9eN3fxlXB/zK5Xq0SWVeu1y3Xla5pGy543W8N7/ESvkvzPeFJIgJEgAgQASKQDwjQnW4+zOL/xqC8VNmNWDRXtXA9atx8Bt1tkAzjoU6gbb3RNqjYaOJOD5fQD9Mnv80f7sEwGzHk88vj1peOcGEwHgV9j4eSVIW++eabQLhcd7TAPdq6CqwkRoI63bdzry6kDCnVoxgl/k3+7rvvbDkwaGC0g0hJA0PKLsM3OVnGY/To0bZ9JR2LqFtJLGy6n0tquNvFt+BHwKBly5a6vJ8rXr8yjCMCRIAIEAEikO0IUNUq62VS8XXw999/l9q1a+vM0I933eh6a3Dd6gYZxiaqaoU2du3aJU2bNtW3PuMdOvgwFK5WrZq+SXrTpk2yYsUKefLJJ7W7X3jCMuTerI7+K+ZI1MZLuxeFihXc/5obrFEmE6pW8NwEr0eGFi1aZNVdoGJUv359k6Q9hx100EH2HQEY2KtNvI2DGhvcGoPg0tXYIMBFLmxx/IyhvbdZo6zXDSvi0kVQ5+nZs6dWa4IXtMMPP1zgUEBd4ihvv/12mNG010taOvoAL2ao15CSXEjZsmXNa9gTRuFezB977DFRDIDOBwNzrBvc8g2s4Y5ZSZBESQK1Ufkdd9xhHSC4FSeraoX6TzrpJFsVbmDHWMzN5XD5bMjPJbWS8ghuXr/ssss0/lWrVtW3pK9cuVLUhY36B+Vxo/moUaNMVXwSASJABIgAEchZBMh45OzUhXccm2RsxkGxDIDVCa/UrVtX5w1iUpJhPFAh7AHUqbVlPnQjAb9cxgNZsHELckuKdHjoMi6AM8F4uB7B0F408vNQhA280cuPVhZpn376qZQqVSoiW2ExHhEd8UQoaYevRyhPtoRfXSY4VmEwskOGDAnLBre2cKs7b968sHi/l3QzHmhj6tSp2hGCX3sm7oorrvDNA8YjVr/xfcK1NJgqEhEgAkSACBCBXEeAjEeuz+D/+o8TURhDg2D8ixP6aNSlSxeBsSsIJ8LuaT7i4FYUp/+4FDDW5gj5XYKhOZgIeCXyIxi14/4CtOESpDZwP2q8AJk0bL5wKgzXu0rdSkcr1RXBpXHppHg2kaY93PWAOx9cwgl3PB7AUAYMRsmSJd3iOrx27Vp9d4WbkEmJB/oBKUE0T2gw9gejh5P8dJPLMMeqOxqziTUKY3NXKmbqwwV/YMax5v28ZO3evVvq1KmjsyezrvAdeSVyqAzrVqkEau9spi/uE98dGFhI9PwIxva4SBFSKBIRIAJEgAgQgXxAgIxHPsxilo4BbkKhXgV1I1wAhw0g1K6wIYtGP/30k76QEOo+NWrU0JtFvwvkotXBtMQQwOWSX331lb7jBRIxqDVhkw7VplzC3qwd3LpeqVIl3f8qVaroG+ATQyTx3FC9glcuSGGOPvpofUcO1OpiEVQU8Z2gPC5sNN9J+fLlYxVlOhEgAkSACBCBnEKAjEdOTRc7SwSIABEgAkSACBABIkAEchMBMh65OW/sNREgAkSACBABIkAEiAARyCkEyHjk1HSxs0SACBABIkAEiAARIAJEIDcRIOORm/PGXhMBIkAEiAARIAJEgAgQgZxCgIxHTk0XO0sEiAARIAJEgAgQASJABHITATIeuTlv7DURIAJEgAgQASJABIgAEcgpBMh45NR0sbNEgAgQASJABIgAESACRCA3ESDjkZvzxl4TASJABIgAESACRIAIEIGcQoCMR05NFztLBIgAESACRIAIEAEiQARyEwEyHrk5b+w1ESACRIAIEAEiQASIABHIKQTIeOTUdLGzRIAIEAEiQASIABEgAkQgNxEg45Gb88ZeEwEiQASIABEgAkSACBCBnEKAjEdOTVfR7mwoFJLdu3drEPbZZx8pXrx40QakgEb/xx9/yN9//61bK1GihOAnWwjrAeti7733lpIlS2ZLt9gPIkAEiAARIAJEwAcBMh4+oORy1MaNG2X79u0RQyhWrJhUq1ZNKlasGJGWKxEffPCBdOzYUXf3gQcekHbt2uVK13Oun19//bWMHTtW3n77bfnhhx9s/y+++GIZPXq0fS/sQOPGjXX/zjrrLBk/fnxhd4ftFxEE1q1bJ5999pl8++238uOPP0rVqlXlsMMOkxNOOEH23XffuFAA07x69WpdT+nSpaVBgwZy5JFHCv5Wx0u///674G8+qFSpUroP8ZbduXOnfPrpp/LJJ5/ITz/9JJUqVZKjjz5a8E3FYuLT0fd4+8l8RIAI5BcCZDzyaz5lwIABMmvWrMBR4Z8iNux9+/aVgw46KDBfNia8//77ctFFF+muZTPj8d///lc+//xzwWbi2muvzUYoo/bp+++/l5NOOsk3TyYZj48//lhee+013W737t2lQoUKvn1wI+vWrSu//vqrkPFwUWE4Uwi88MILMnnyZL1Z92sDaxZ/gy+88MKoDMSzzz4rgwYNiqji4IMPlhkzZkj16tUj0tyIX375RZ555hmZMGGCPRg44ogjZMGCBW423/Bff/0lw4YNk6effto3Hf8jVq1a5ZuGyFT7HlgxE4gAESgSCJDxyLNpjsV4uMP9v//7P8HGLVcoVxiP66+/Xl566SV98hntH3i24n733XfLo48+qrt33nnnaUYVp7mgcuXKSeXKlXU43b+mT58ud9xxh6725ZdflmOOOSZmE2Q8YkLEDGlEAN8DJAQuYaMO5tel2267TXr06OFG2fBTTz0lQ4cOte/eAJgXMB81a9b0JgmkFCj/+OOPR7QZD+OB8jgMWbFiRVjd3jGsX78+LN28pNJ3UwefRIAIFG0EyHjk2fy7jAdUT4499lg9QqjLQKwPSYFRncE/KpzO42Q+F4iMR8HMUrdu3WTJkiW6MWyyypQpUyANk/EoEJjZSAoIGMbjyiuvlPPPP19q1Kihvw9IIMCsP/LII7Z2P+b5u+++k6ZNm9o8EydOlNNPP11gRwWGf+rUqTrt5JNP1syHzfi/wBVXXCFvvfWWjYaEZMuWLfo9HsYDjD2+MxDK3nPPPVK/fn19SAL1qeXLl8vs2bPloYce0nncX6n23a2LYSJABIowAsowk5RHCNx6660h9Q9I/6hNY8TI1D+p0HHHHWfzvPHGGxF5sjXivffes/2eO3dutnYzdN111+l+AudcpJYtW+r+K3uaAu3+tGnT7PwqVbW42jZr+ZprrokrPzMRgVQQUJLMkLKhC6yiX79+dg0/8cQTEfnUYZBNV1KLsHTFvNg0/A1XdlZh6Xi5/PLLdR7FrISUSm3ozz//tGXw3UYj9Nv8b0Debdu2RcsekZZq3yMqZAQRIAJFEgFKPPKM6XQlHi+++KLUqVMnYoQ45TInc4MHD5arrroqIs9zzz2nT9JgcNipUydtRImTso8++khLTGCo3qxZM4HOP8T0LsEDEtpeuXKllrLs2bNHateurX8uuOCCmBIWnLK/+uqrAgmH+seq7Q1at24tqCfIxgPGkdA9BuFE0W/cixYtkrVr12pvWEFqEGYcGCdO/9asWaPLlC1bVutdn3HGGYIf16PWhx9+KEuXLjVF9Ynhhg0b9LvaiNh4E8AYMmFfkyzusKvAOA395z//0UGciF566aUmWj+Ba4sWLcLikn1RGx+ZOXOmLQ7nAZgjUJcuXSIwOuWUU+T444/X6eaXq2qFNa0Yaa1G8s4778j+++8v9erV0+u7fPnypojvc/PmzTJ//nxt6Av7nAMPPFCvV8x1o0aNfMukGvnPP/9o497FixdrmyD0AafOMPCtVauW4NQbBsfRCHOOk3b130saNmyo1z7WI76FL774QqDPDzW5c889V/ANuesW9aLc66+/LigDQ2PMiWLm9A8cOQRJu9LRd7SPOccJ+6ZNmwQn6pgzrDuMu3nz5lqigHxBhL8TrloQ1seJJ54YlD3j8cDy6quv1u106NBBO2gwjQJrfDvGGBx/3w444ACTLPjuHn74Yft+4403yg033GDfEYDDB3yDsGkycwmDdFAsiQfqNt/2gw8+qNeELhjHr3T0PY5mmIUIEIEigAAZjzyb5HgYDzAVSjKiR44N3l133RWBAhgEMA7QM4Y+cdu2bSN0ilFInTTbuvAOj1rYbLvqAIg3hA0V/gGaf5Ym3jyxCenfv795DXv27t3bei7yGpdj89GqVSudH4aTUEnwEsaMsYPczYqb77ffftP/nNVppRsdFsZmds6cOTYO6hKjRo2y77EC6IN3Ax2rTKz0VHDHfLnjidZWOo3LYUzevn37aM2FpWH+sN5cchkPbLyMbYqbBxtZGAXj6UdgksGAe/X0TV5s/mC3YzZ6Jj7V58CBA8MYL7/68C1gzEFtY72CUQBB/Qebbi9Gpl6saWzmDUHlEn0IMkgGnmDm/GxtUu07GCaMTUkuTXd8n0Hfqcncp08feeWVV8yr4P3mm2+27wUdABPfq1cv3Sz+BuFvkaGtW7dKkyZN9Kv3bwgY/3POOcdk1c8gdauwTOrF/C2NxXiAEQKDiYMiMD2xPFe57WSq724bDBMBIlA0ECDjkWfzHA/jgdOu+++/X4/cyzgYOAzjgc0aXPBCCoF/WDj9xekxJAc4GXbL41QMes/IC8JJ65lnnqnvfXjzzTdtPIwnYUPgtS2BhAGMkCHoU4PxAQNkvB2ZtEwwHuj/JZdcIu+++65pRoADTqAhUcFGGUaZGJc5mUdGxOGk09C8efOs3jU2g16Cxya430wXpYo7mA4zZ+iTYbowT5hPl3ASjdPzdBBOuCdNmmSrAr7YEIHgeQ3SNpcgfTAbNxNvGA/zjrkxDChO/Q0zgXm4/fbbTTb7dO1KEIk1B+YYjBycLxh7qFtuuUXA+KaTsPEGo43vCgwBNpAw3ofkw+072kX7fuQyHpBAYmOJMRupAdYGcIUdgMt4oBxwcu0DcIq+3377iVJptOsbfcMhAvrlUqp9d3HHOoMUEN8EXNN++eWXlhHONcbDdczg/RsFGzvjAtxlSsCE4e8O1j4YEvy9A8ViJMx8xMt4uK6n8fcf84ofrBl40cK6x7cNabaXMtV3bzt8JwJEoAggoP4xkfIIgVg2Huofe0j5mre6vkpVwXf0asNp86h/gKHhw4eHlBpIWN5ly5aF1Cbbxi1cuNCWUe4kQ2jLEHSRje0D6lObIJNkn0qtx5aHLrVLaoNq01Dea+OhNis2fcqUKW5RG1abN5vHRjoB1Im68aNOH0NfffWVk/pvUP2jDinVtIh4N8KMs6BsPFLF3e07wtAfBwbQJy9ISsXGA/3t2rVrSG26bZcVY2PnE+lqg2fTENixY4e1d8JcqQ16WDp04o29C8orhiAsPdUXrFPFeER8V6gXfXO/U3dcbruIR9/cH8W0uFlCSkUxpFyvhtS9EzZebYptGSXtCan7IGwaAsrI2aYriWhYGl5S7buSnNn61YY7on787VDuXiPivRGKKbP1AAOliuTNUmDv6DPWkZkLrD+X1GGLTVMqTzZJebCy8Zgjd95tpigB0140Gw/XFkQx4CF1YGTbNOXNE2vSS5nqu7cdvhMBIpD/CEDHl5RHCLiMhzrJCikdb22ACKNypVIRUhII+w8H/ySVe0Xf0buMR6yNtqkAGz/zz8tvM6HE9TYd/1xdUhIUm9a5c2c3SYeVTrndEKONdDMeqN/9h4/+JEsFzXikgrvfGHOV8fCbM2yyzJpU0ouw4Y4ZM8ameRldkxEGvKa8UuMy0QXyfOyxx2zbyubIt00v4wEGPRaBqTFjAoONTamXwKwo6ZLNh/dEKFbfTd34G5Ro3W4/sonxiGVYjg29wd0YluNvomFWDDOCOTH5lGTKHa5v2OSNxniAaTb53CcOY8BYuowg0pUb8LC2MtX3sEb4QgSIQJFAgIxHnk2zy3i4/2D8wko9KHD0LuPhPQkOKmQ27thUBJFSebH/AN1TXEheTB+DTjqVi0ebJ92Mh8sUYTOTChU045EK7n7jzEXGA332I1dS5vWUBQbXrDml5hcCs2x+4EENP0qlzubBvGaKsMGEhA1tKtU9/aPUYWzb6IcfuYwHNrDxbFRRvxm3utPBjhljN+PGU9m22Hx+TJ3pTzJ9d6WbkHQly3ygz/hbYH5cqY7pX0E8XQkR1pXfeNQdGBZPjBlk/lZg/RqJMrzJmflRl3nG7L7JG43xAC4mH574mwEpsUvKnsfm8R7+ZKrvbvsMEwEiUDQQIOORZ/McD+OBE3LviZYXBpfx8DsR9eZXfujtPy3UH0Q4XTP/AJXXHZsNqhsmHmJ9P1K2CDZPuhkPbLRM+8r43a/5uOPMZgIbwUxTqrj79S8XGQ9sZP3IlVhAAuiSOWk28x7rCWlhOgmqX8p2KQS1xFhtQ1rpRy7j4d0s+uVHHFSxYrXnTfeqZKbad1e9CG1hIwyJATbkyt4oBAlkrpB7aIJxBKnk4W+WwRWuaZUHNvv+9ttv2+G6Uml837HI1BmN8fBKPPBdeAnMkpFEoU5XVTZTfff2ge9EgAjkPwI0Ls8zOx7XuBzuGNU/ED3CUqVKSZUqVfSP68IxaPjGuByGn66xdVD+b7/9Vk499VSd7HUj6ZbBpYZwCQlSmwyBi1SQa5T5/PPPa9egOsH5BQN1xdToGK/hZqperWBgDe9OoHvvvTchb0u6kPOrIG8uTxV3p9s2CENnuPyEsbK50MwmZjDgGhz7Xb7m17QxLodhNNaWl1wPbu66Uht2QVlD5jsx737Pww8/3Bre+6UnGjdixIiI+vC9waUsaNeuXda4Hd664KjBS0raYL1awUBbqY95s0S84/szWLntRWR0IoYMGaIvujNRqfYdBtVPPvmkvtAUc+ElOAmA69d0e3/ztpPqO9w2wzAcBEN8eE/zu3Ec6a7zDDjRgDcxGPd7PQsaI3DUpw6IUDQqxWNcrmx4tHtoUxEMyr0OA5CGecbfZZDrjj1TfdcN8RcRIAJFC4H8562K1ghdiQdODpMlI/GI95TX1RuH+kYQQY/ZnNApH/4227hx42w81Cf8yD1ZTEbi4epge+vHybPpF9QmUqGClHikirvfOHNR4gFjWT9yJR7uesPprplv6NQXNLkSNpySqztEtD2W2w/YnZg+It2PXImHnxG4Xxmctpt6gyQpfuVMXLr6jvpwaR6kHH379rW2DqZveCoG2DSbdU9Ijd2+ApdoBFU/Nz/CmHtXsgBJkskT799ekz+axAP9MvnwDCJIe00+/E00lKm+m/r5JAJEoOggQFWrPJvrwmI8AKP5hwXVkSBSEhmbDwbvhlzjxaBNlque4WU8oB9v2jeGm6Zu83T1yk2cebrG7SNHjjTRST0LkvFAB824k8Hdb4BFgfHAuI1KCzZ/BU1KYmDnzWWI3H7AmN3MbdA3kQzjoe69sPWqCxzdJuMKp6vv3sZg46AkXXZeMHYlffRmy4p3qIm6qnpBNjhuZ+ElzcyneWIuXHJtMaKprLplTF2xGA/zXSO/nw0K6lSSZ9tHeC00lKm+m/r5JAJEoOggQMYjz+a6MBkPs5HDPzb3FM9A7NUhdv/5wbjX/AMN2vjjVNTk8TIe8M5l0vzKoy1sME0e0yfzhIGsSYOeczy61aas96kuMLN1uWP05kvXeyq4+/XBbFAK2p2uK50Iknp5+2s2f4lKPFAPJHNmztetW+etOqPvbttBBuEuo5xOxsPd3N50000JjzNdfQ9qGB68zLxEk56i/KBBgzQDgHWAH0hzMk2Qwrh/S4I8ovn1Q93jYcembjiPyOI6Q/BzOR5RQEUYrGIxHq6HtyBnAa6bXXWbfFhzmeh7WAN8IQJEoEggQMYjz6a5MBmP0aNH23+C6jbvCGSh1mH+SXpd9GLzZTaReEIFwyVIR0xZPL2MB4xRTTr+AXuNU121FeTzI5exmTBhgl8WXa+yefFNM5H33Xef7YvXk5LJk85nKrj79aOwGA/ckWLmEOo38ZBZM8kwHq56HTyZedeM2z48AEG6kC5ynSx4T73RhntvAjBJJ+MBZtjdREZTycT9HupW7bBhp6PvrrQzrHL14t6/AvXIaFTQ7nTRb/N9YF78jLSj9VfZMdk17mX6lE1PWN3xeLRCW+abicV4QLJm8uL/hJe++eYbm4583kOTTPTd2we+EwEikP8IkPHIszkuTMZj27ZtYf+44IIRkg9s2Fz1DvxT83PR6+oXw6UkNnv454eNEf6pmn+aeHoZD0wjVBNMHmyOoB6A9l1vWCbdb9rdDQ/yDR061PYBmwKcwqMNbDyikTLKtP2A/QDcFmPztmHDBv2TijTFr91UcffWaTZWBS3xcD3vgKGAGhDm3uCmbo/3dtUyq8kwHqhM3SJv5wrjVbdGa5e0WHc42YbqD+KxHmJ5govoXJQIZehu2zVrBMw31quf16l0Mh7olrsJxdjwrWL9g/nCWsdYoeaEefCezKej76gXXrjwrWDeYduAseNwwnUni283GhU04+HesQGpB+zBgn78/ka5klngDpfJGD/WuetqPJpLb6wPMObmB/XgB5iaODy9nsgwt+7fUfyNxJzj7xHWg5uGe1i8lI6+e+vkOxEgAkUPAXq1yjNfAq5XK9crSaLDNF6t4KFFbXriLg4vSMOGDYua/4orrvDNozaWojYjoqQEUcsj0evVCnGu1yu8uwTvPVWrVhW1sdTR8ILlR+omdlE2Gn5JNg4ed5ROt333BuCxp02bNqL0wL1J+h2eltLtrScV3L2dLCyvVugH1g7G4keKqRbFYIQlJevVylSi1EmkV69eca05tZG0HqRM+WSf6mJPgfc3teEMrAJrCOsRFI9XK7VxFaVOE1ifN0FtLkVJy7zREe+tW7cWJQG08enou5k3W6lPoFGjRtrD0j777OOT+m9Unz59RB1q2HS8K1VH+57ugPEgFU+9QX87Fy9eLIrhDayiVq1aetwHHnigb554+wD8lEQmrA78bVWMtPWWFpb4vxe0r2zuxA/3VPvu1x7jiAARKFoIkPHIs/kePHiwPPPMM3pU2LTgn0gyBNec6oRflzebn3jrgevF/v37a1eRbhm4h1SnbAKmJoiUdETUbbphmwnkhbtUMCxwPQlS0hG9udcvzi91Si4DBw50YkS7t1Qni6LuChGkg4IYD6QplQPtVtKPucBmApvf9u3bI2sgqdNr7Y4SLmK9m0u43GzQoEFg2WQTUsHdbdMwHqeddppMnjzZTcp4GEwbGEi0i/WH9WBI6fNLz549zat+Gtej2KRjTXjJdZOMcL169f5fe3eUojAMhHF8BBV8EHwQRFDwyYd6CvEoHsNzegBvsvMNZNG4upWu3RD/fRG1mskvjWRsm+S7mAbSml7WJyW4KS/t6P8kx7GmY286naaXOz/6opXRH/L+pSRZ05pq4KlBojbFdjgc7sr0G7Jtt9vF6375oqn/v7Kdz2c7nU7fCfn1Z9Vf/f4h8zMQ5vc9Xb9lXWPX9Nn6Q8PPZt18b3riixfa8Xj81TtNXZ0+p+d+CVN6+uePbQf9Kli/vXnbpoDUV5Uk5vXf7/cxnfdsNku73j22jUF9w8+O3H1ev28yUv/KNyXhfsmpafr1R1uX2B99J68jgMDnCJB4fE5b915Tv0Y5/vX3BQhtu93acrm0wWDQKg4NODUo0qBQg8VXBnx+f0iU65duxFoN8/m8VZn5TirbZ8uyy+USc/TrjMl6vW5dh/z7+nrexb2vGEssx094x4BaSakSx8ViEeveKBF45+b3DcQANK21oHL73pTA6FjXGSD1NcWgY300Gj0NpWvsSmD8ch/zyyJtOBzGWcnVamWTyeRpubW86dNhR9KnNTWapvnxLMO76qrjzW8yj2Nea9RsNhsbj8eti/vP2FsHyY4IIFCcAIlHcU1CQAgggAACCCCAAAII1CdA4lFfm1IjBBBAAAEEEEAAAQSKEyDxKK5JCAgBBBBAAAEEEEAAgfoESDzqa1NqhAACCCCAAAIIIIBAcQIkHsU1CQEhgAACCCCAAAIIIFCfAIlHfW1KjRBAAAEEEEAAAQQQKE6AxKO4JiEgBBBAAAEEEEAAAQTqEyDxqK9NqRECCCCAAAIIIIAAAsUJkHgU1yQEhAACCCCAAAIIIIBAfQIkHvW1KTVCAAEEEEAAAQQQQKA4ARKP4pqEgBBAAAEEEEAAAQQQqE/gC7aIkdjdVNwhAAAAAElFTkSuQmCC;" vertex="1" parent="1">
          <mxGeometry x="150" y="480" width="409.59" height="230" as="geometry" />
        </mxCell>
      </root>
    </mxGraphModel>
  </diagram>
</mxfile>
